<?xml version="1.0" encoding="utf-8"?>
<!-- Generator: Adobe Illustrator 16.0.4, SVG Export Plug-In . SVG Version: 6.00 Build 0)  -->
<!DOCTYPE svg PUBLIC "-//W3C//DTD SVG 1.1//EN" "http://www.w3.org/Graphics/SVG/1.1/DTD/svg11.dtd">
<svg version="1.1" xmlns="http://www.w3.org/2000/svg" xmlns:xlink="http://www.w3.org/1999/xlink" x="0px" y="0px" width="1920px"
	 height="1920px" viewBox="0 0 1920 1920" enable-background="new 0 0 1920 1920" xml:space="preserve">
<g id="Ebene_1">
</g>
<g id="Ebene_2">
	<path fill="#A9EEC6" d="M583.11,778.23c12.93-21.81,23.32-56.87,20.23-87.18c-3.49-34.18-18.83-43.24-23.71-66.26
		c-7.55-35.62-8.93-88.53,0-136c9.48-50.42,28.38-87.42,48.51-122.59c5.25-9.17-0.39-23.43,3.94-32.13
		c48.45-97.26,165.79-150.76,230.4-167.07c56.29-14.21,149.06-17.83,190.02-12.98c0,0,42.42-76.41,142.83-93.27
		c169.48-28.47,277.48,28.32,324.93,139.16c38.9,90.87,39.62,278.46-107.11,341.2c-11.77,5.03-10.08,5.3-10.08,5.3
		c0.57,111.25-60.43,229.58-164.67,281.91c-9.71,4.88-8.67,14.38-6.13,32.29c12.42,87.45,55.97,182.43,67.69,189.47
		c11.72,7.03,29.69,1.33,67.45,5.8c23.74,2.81,55.84,28.87,48.81,52.3c-7.03,23.44-42.15,75.99-34.22,89.57
		c22.18,37.99,45.66,80.97,67.89,131.89c30.81,70.56,103.22,325.18,93.84,367.38c-9.38,42.19-32.58,194.86-37.26,222.99H546.16
		c-17.09-79.58,36.93-184.8,75.87-245.63c58.63-91.58,82.56-164.88,110.69-197.69c28.13-32.82,28.13-44.54,39.85-72.66
		s58.6-56.26,77.35-82.04c18.75-25.79,2.34-35.16,18.75-65.63c16.41-30.47,44.54-37.5,56.26-51.57
		c11.72-14.06,9.38-14.07,2.34-46.88c-7.03-32.82-23.44-65.63-30.47-84.38c-7.03-18.75-9.38-25.79-21.1-14.07
		c-11.72,11.72-82.04,60.95-107.82,67.98c-25.78,7.03-51.1,8.99-78.27-2.23c-23.01-9.5-25.81-44.32-38.32-79.04
		c-3.27-9.08-23.54-17.54-30.32-28.97c-5.35-9.01-8.56-32.51,3.99-45.76c3.65-3.85-26.5-13.12-18.83-48.82
		c2.99-13.91,3.07-16.18,3.49-27.2c0.42-11.24-9.06-14.35-30.69-22.32c-24.14-8.89-44.12-30.22-25.37-54.46
		C570.88,796.21,568.92,802.15,583.11,778.23z"/>
</g>
<g id="Ebene_3">
</g>
</svg>
