<?xml version="1.0" encoding="utf-8"?>
<!-- Generator: Adobe Illustrator 16.0.4, SVG Export Plug-In . SVG Version: 6.00 Build 0)  -->
<!DOCTYPE svg PUBLIC "-//W3C//DTD SVG 1.1//EN" "http://www.w3.org/Graphics/SVG/1.1/DTD/svg11.dtd">
<svg version="1.1" xmlns="http://www.w3.org/2000/svg" xmlns:xlink="http://www.w3.org/1999/xlink" x="0px" y="0px" width="1920px"
	 height="1920px" viewBox="0 0 1920 1920" enable-background="new 0 0 1920 1920" xml:space="preserve">
<g id="Ebene_1">
</g>
<g id="Ebene_2">
	<path fill="#A9EEC6" d="M1715.64,1357.95c-77.71-60.16-265.39-193.23-325.24-228.09c-59.84-34.86-128.06-98.63-140.83-142.7
		c-12.77-44.07-20.09-102.46,20.02-185.01c40.11-82.54,94.87-226.82,84.98-315.89c-10.7-96.32-10.18-167.51-56.3-243.72
		c-33.23-54.92-88.36-83.42-116.5-102.35c-28.14-18.93-60.97-35.13-102.52-51.9c-41.55-16.77-161.11-10.45-224.88,0.64
		c-63.77,11.09-178.16,50.37-261.62,138.34c-65.32,68.86-82.39,120.85-75.6,173.69c4.79,37.24,16.23,49.5,16.23,49.5
		c-4.88,67.36-37.35,125.06-31.18,144.58c6.6,20.88,36.82,45.62,50.8,59.66c5.2,5.22,13.73,19.67-1.36,43.53
		c-21.82,34.51-27.27,66.09-55.39,112.26c-8.29,13.6-8.68,34.85,1.95,48.53c7.69,9.91,20.75,20.19,54.81,25.91
		c6,1.01,5.35,22.02,1.98,44.42c-1.82,12.07,14.3,20.83,22.19,29.41c2.16,2.35-3.68,27.02,2.92,34.85
		c8.75,10.39,16.52,16.01,28.53,30.26c12.01,14.25-1.93,31.77-3.89,54.74c-1.96,22.98,9.25,44.48,9.25,44.48
		c-62.33,27.87-233.66,129.37-259.72,213.96C309.72,1481.72,286.53,1920,286.53,1920h1544.2
		C1830.73,1920,1807.34,1428.95,1715.64,1357.95z"/>
</g>
<g id="Ebene_3">
</g>
</svg>
