<?xml version="1.0" encoding="utf-8"?>
<!-- Generator: Adobe Illustrator 16.0.4, SVG Export Plug-In . SVG Version: 6.00 Build 0)  -->
<!DOCTYPE svg PUBLIC "-//W3C//DTD SVG 1.1//EN" "http://www.w3.org/Graphics/SVG/1.1/DTD/svg11.dtd">
<svg version="1.1" id="Ebene_1" xmlns="http://www.w3.org/2000/svg" xmlns:xlink="http://www.w3.org/1999/xlink" x="0px" y="0px"
	 width="1920px" height="1920px" viewBox="0 0 1920 1920" enable-background="new 0 0 1920 1920" xml:space="preserve">
<g>
	<g>
		<g>
			<path fill="#ADF2CA" d="M0,672.89l0.98-0.2c0.01,0,0.02,0,0.02,0.01c0,0.01,0,0.02-0.01,0.02c0,0,0,0,0,0L0,672.89z"/>
			<path fill="#ADF2CA" d="M40.16,664.62l0.98-0.2c0.32-0.07,0.64,0.14,0.71,0.46s-0.14,0.64-0.46,0.71c0,0-0.01,0-0.02,0
				l-0.98,0.17c-0.32,0.06-0.62-0.16-0.68-0.47C39.65,664.98,39.85,664.68,40.16,664.62z"/>
			<path fill="#ADF2CA" d="M80.33,656.39l0.98-0.2c0.62-0.13,1.22,0.27,1.34,0.89s-0.27,1.22-0.89,1.34c-0.01,0-0.02,0-0.03,0.01
				l-0.98,0.18c-0.61,0.11-1.2-0.3-1.31-0.91C79.34,657.09,79.73,656.51,80.33,656.39z"/>
			<path fill="#ADF2CA" d="M120.51,648.22l0.98-0.2c0.88-0.18,1.73,0.39,1.91,1.27c0.18,0.88-0.39,1.73-1.27,1.91
				c-0.01,0-0.03,0.01-0.04,0.01l-0.98,0.18c-0.88,0.16-1.71-0.43-1.87-1.3C119.09,649.22,119.66,648.39,120.51,648.22z"/>
			<path fill="#ADF2CA" d="M160.7,640.08l0.98-0.2c1.12-0.23,2.21,0.5,2.44,1.62c0.23,1.12-0.5,2.21-1.62,2.44
				c-0.01,0-0.03,0.01-0.04,0.01l-0.98,0.18c-1.12,0.2-2.19-0.54-2.39-1.66C158.88,641.36,159.6,640.3,160.7,640.08z"/>
			<path fill="#ADF2CA" d="M200.9,632l0.98-0.2c1.34-0.27,2.64,0.6,2.91,1.93c0.27,1.34-0.6,2.64-1.93,2.91
				c-0.01,0-0.04,0.01-0.05,0.01l-0.98,0.18c-1.34,0.24-2.62-0.65-2.86-1.98C198.72,633.52,199.59,632.26,200.9,632z"/>
			<path fill="#ADF2CA" d="M241.09,623.91l0.98-0.2c1.55-0.31,3.06,0.69,3.38,2.25s-0.69,3.06-2.25,3.38
				c-0.01,0-0.04,0.01-0.05,0.01l-0.98,0.18c-1.55,0.28-3.04-0.75-3.32-2.3C238.57,625.68,239.57,624.21,241.09,623.91z"/>
			<path fill="#ADF2CA" d="M281.3,615.87l0.98-0.2c1.74-0.35,3.43,0.78,3.77,2.52c0.35,1.74-0.78,3.43-2.52,3.77
				c-0.01,0-0.04,0.01-0.05,0.01l-0.98,0.18c-1.74,0.32-3.41-0.83-3.73-2.57C278.46,617.87,279.59,616.22,281.3,615.87z"/>
			<path fill="#ADF2CA" d="M320.71,607.65l0.92-0.39c1.79-0.75,3.86,0.09,4.61,1.89c0.75,1.79-0.1,3.86-1.89,4.61
				c-0.01,0-0.04,0.02-0.05,0.02l-0.93,0.37c-1.8,0.72-3.85-0.15-4.57-1.96C318.09,610.41,318.95,608.39,320.71,607.65z"/>
			<path fill="#ADF2CA" d="M358.54,591.82l0.92-0.39c1.95-0.82,4.2,0.1,5.02,2.06c0.82,1.95-0.1,4.2-2.06,5.02
				c-0.01,0-0.04,0.02-0.05,0.02l-0.93,0.37c-1.96,0.79-4.19-0.17-4.98-2.13C355.68,594.83,356.61,592.63,358.54,591.82z"/>
			<path fill="#ADF2CA" d="M396.37,576.01l0.92-0.38c2.11-0.88,4.53,0.12,5.41,2.23c0.88,2.11-0.12,4.53-2.23,5.41
				c-0.01,0-0.04,0.01-0.04,0.02l-0.93,0.37c-2.12,0.85-4.52-0.17-5.38-2.29C393.27,579.26,394.28,576.88,396.37,576.01z"/>
			<path fill="#ADF2CA" d="M434.22,560.26l0.92-0.38c2.22-0.93,4.78,0.13,5.7,2.35c0.92,2.22-0.13,4.78-2.35,5.7
				c-0.01,0-0.04,0.02-0.04,0.02l-0.93,0.37c-2.23,0.9-4.77-0.18-5.67-2.41C430.96,563.7,432.02,561.18,434.22,560.26z"/>
			<path fill="#ADF2CA" d="M472.08,544.52l0.92-0.38c2.34-0.97,5.03,0.13,6,2.47c0.97,2.34-0.13,5.03-2.47,6
				c-0.01,0-0.04,0.02-0.05,0.02l-0.93,0.37c-2.35,0.95-5.02-0.19-5.96-2.54C468.65,548.13,469.77,545.48,472.08,544.52z"/>
			<path fill="#ADF2CA" d="M509.94,528.77l0.92-0.38c2.46-1.02,5.27,0.14,6.29,2.6c1.02,2.45-0.14,5.27-2.6,6.29
				c-0.01,0-0.04,0.02-0.05,0.02l-0.93,0.37c-2.46,0.99-5.26-0.2-6.26-2.66C506.34,532.56,507.51,529.78,509.94,528.77z"/>
			<path fill="#ADF2CA" d="M547.79,513.03l0.92-0.38c2.57-1.07,5.52,0.15,6.59,2.72c1.07,2.57-0.15,5.52-2.72,6.59
				c-0.01,0-0.04,0.02-0.05,0.02l-0.93,0.37c-2.58,1.04-5.51-0.21-6.55-2.79C544.03,517,545.25,514.08,547.79,513.03z"/>
			<path fill="#ADF2CA" d="M585.68,497.35l0.92-0.38c2.65-1.09,5.68,0.16,6.77,2.81s-0.17,5.68-2.81,6.77l-0.03,0.01l-0.93,0.38
				c-2.65,1.08-5.67-0.2-6.75-2.85C581.79,501.45,583.05,498.44,585.68,497.35z"/>
			<path fill="#ADF2CA" d="M623.57,481.69l0.92-0.38c2.72-1.12,5.83,0.17,6.95,2.89c1.12,2.72-0.17,5.83-2.88,6.95l-0.03,0.01
				l-0.93,0.38c-2.72,1.1-5.82-0.21-6.93-2.93C619.57,485.9,620.87,482.81,623.57,481.69z"/>
			<path fill="#ADF2CA" d="M665.02,473.63l1-0.07c3.01-0.2,5.61,2.07,5.81,5.08c0.2,3.01-2.07,5.61-5.08,5.81l-0.04,0l-1,0.06
				c-3.01,0.18-5.59-2.1-5.78-5.11C659.76,476.41,662.03,473.84,665.02,473.63z"/>
			<path fill="#ADF2CA" d="M705.93,470.86l1-0.07c3.08-0.21,5.75,2.12,5.96,5.2c0.21,3.08-2.12,5.75-5.2,5.96l-0.04,0l-1,0.06
				c-3.08,0.19-5.73-2.16-5.92-5.24C700.54,473.71,702.86,471.07,705.93,470.86z"/>
			<path fill="#ADF2CA" d="M746.83,468.09l1-0.07c3.16-0.21,5.89,2.17,6.1,5.33c0.21,3.16-2.17,5.89-5.33,6.1l-0.04,0l-1,0.06
				c-3.16,0.19-5.87-2.21-6.07-5.37C741.31,471.01,743.7,468.3,746.83,468.09z"/>
			<path fill="#ADF2CA" d="M787.75,465.4l1-0.07c3.19-0.21,5.94,2.27,6.15,5.45c0.21,3.19-2.21,6.21-5.39,6.21h-0.01l-1,0
				c-3.19,0.2-5.93-2.25-6.14-5.44C782.15,468.38,784.56,465.6,787.75,465.4z"/>
			<path fill="#ADF2CA" d="M828.66,462.72l1-0.07c3.21-0.21,5.99,2.08,6.2,5.29c0.21,3.21-2.22,6.05-5.43,6.05h-0.01l-1,0.21
				c-3.21,0.2-5.98-2.16-6.18-5.38C823.02,465.62,825.45,462.92,828.66,462.72z"/>
			<path fill="#ADF2CA" d="M869.57,460.04l1-0.07c3.24-0.21,6.03,2.39,6.25,5.63s-2.24,5.4-5.48,6.4h-0.01l-1-0.09
				c-3.24,0.21-6.03-2.33-6.23-5.57S866.33,460.24,869.57,460.04z"/>
			<path fill="#ADF2CA" d="M910.48,457.36l1-0.07c3.26-0.21,6.08,2.21,6.29,5.47c0.21,3.26-2.26,6.24-5.52,6.24h-0.01l-1,0.12
				c-3.26,0.21-6.07-2.24-6.28-5.51C904.76,460.35,907.22,457.56,910.48,457.36z"/>
			<path fill="#ADF2CA" d="M951.39,454.68l1-0.07c3.29-0.22,6.13,2.52,6.34,5.8c0.21,3.29-2.28,5.58-5.56,6.58h-0.01l-1-0.18
				c-3.29,0.21-6.12-2.41-6.33-5.7S948.11,454.88,951.39,454.68z"/>
			<path fill="#ADF2CA" d="M990.58,450.63l0.95-0.3c3.16-0.99,6.52,0.76,7.51,3.91c0.99,3.16-0.75,6.51-3.9,7.51l-0.95,0.3
				c-3.15,1-6.52-0.74-7.52-3.9c-1-3.15,0.74-6.52,3.9-7.52L990.58,450.63z"/>
			<path fill="#ADF2CA" d="M1029.68,438.32l0.95-0.3c3.13-0.99,6.47,0.75,7.46,3.88c0.99,3.13-0.74,6.46-3.87,7.45l-0.95,0.3
				c-3.13,0.99-6.47-0.74-7.47-3.87c-0.99-3.13,0.74-6.47,3.87-7.47L1029.68,438.32z"/>
			<path fill="#ADF2CA" d="M1068.79,426l0.95-0.3c3.11-0.98,6.42,0.75,7.4,3.85c0.98,3.11-0.73,6.42-3.84,7.39l-0.95,0.3
				c-3.11,0.99-6.42-0.73-7.41-3.84c-0.99-3.11,0.73-6.42,3.84-7.41L1068.79,426z"/>
			<path fill="#ADF2CA" d="M1107.9,413.68l0.95-0.3c3.08-0.97,6.37,0.74,7.34,3.82c0.97,3.08-0.73,6.37-3.81,7.34l-0.95,0.3
				c-3.08,0.98-6.37-0.73-7.35-3.81c-0.98-3.08,0.73-6.37,3.81-7.35L1107.9,413.68z"/>
			<path fill="#ADF2CA" d="M1147,401.37l0.95-0.3c3.06-0.96,6.32,0.74,7.28,3.79c0.96,3.06-0.72,6.32-3.78,7.28l-0.95,0.3
				c-3.06,0.97-6.32-0.72-7.29-3.78c-0.97-3.06,0.72-6.32,3.78-7.29L1147,401.37z"/>
			<path fill="#ADF2CA" d="M1186.11,389.05l0.95-0.3c3.04-0.96,6.27,0.73,7.23,3.77c0.96,3.04-0.72,6.27-3.75,7.22l-0.95,0.3
				c-3.03,0.96-6.27-0.72-7.24-3.75c-0.96-3.03,0.71-6.27,3.75-7.24L1186.11,389.05z"/>
			<path fill="#ADF2CA" d="M1225.23,376.78l0.95-0.3c2.99-0.93,6.16,0.73,7.1,3.72c0.93,2.97-0.72,6.14-3.68,7.09l-0.95,0.3
				c-2.98,0.95-6.17-0.69-7.13-3.67c-0.95-2.98,0.69-6.17,3.67-7.13L1225.23,376.78z"/>
			<path fill="#ADF2CA" d="M1264.36,364.55l0.95-0.3c2.91-0.91,6.01,0.71,6.92,3.63c0.91,2.9-0.7,5.99-3.59,6.91l-0.95,0.3
				c-2.91,0.93-6.02-0.67-6.95-3.58c-0.93-2.91,0.67-6.02,3.58-6.95L1264.36,364.55z"/>
			<path fill="#ADF2CA" d="M1306.29,360l1-0.15c2.98-0.02,5.41,2.3,5.43,5.28c0.02,2.96-2.35,5.35-5.31,5.4l-1,0
				c-2.98,0.04-5.43-2.21-5.47-5.19c-0.04-2.98,2.34-5.34,5.32-5.34H1306.29z"/>
			<path fill="#ADF2CA" d="M1347.29,359l1,0.2c2.9-0.02,5.27,2.42,5.29,5.32c0.02,2.89-2.29,5.3-5.18,5.34l-1,0.04
				c-2.9,0.04-5.29-2.47-5.33-5.38s2.28-5.53,5.18-5.53H1347.29z"/>
			<path fill="#ADF2CA" d="M1388.29,359l1,0.04c2.83-0.02,5.13,2.28,5.15,5.1c0.02,2.81-2.23,5.13-5.04,5.17l-1,0.02
				c-2.83,0.04-5.15-2.27-5.19-5.09c-0.04-2.83,2.22-5.24,5.05-5.24H1388.29z"/>
			<path fill="#ADF2CA" d="M1429.29,359l1-0.08c2.72-0.01,4.94,2.14,4.95,4.86c0.02,2.7-2.15,4.88-4.84,4.93l-1,0.01
				c-2.72,0.04-4.96-2.05-5.01-4.78c-0.04-2.72,2.12-4.94,4.85-4.94C1429.24,359,1429.28,359,1429.29,359z"/>
			<path fill="#ADF2CA" d="M1470.29,359l1-0.19c2.59-0.01,4.71,1.98,4.72,4.58c0.01,2.58-2.05,4.63-4.62,4.67l-1-0.01
				c-2.6,0.04-4.74-1.85-4.78-4.45c-0.04-2.6,2.03-4.6,4.62-4.6C1470.24,359,1470.28,359,1470.29,359z"/>
			<path fill="#ADF2CA" d="M1511.29,358l1,0.2c2.47-0.01,4.48,2.08,4.49,4.55c0.01,2.45-1.95,4.5-4.39,4.54l-1,0.04
				c-2.47,0.04-4.51-2.12-4.55-4.59s1.93-4.74,4.4-4.74C1511.25,358,1511.28,358,1511.29,358z"/>
			<path fill="#ADF2CA" d="M1552.29,358l1,0.09c2.34-0.01,4.25,1.92,4.26,4.27c0.01,2.33-1.85,4.25-4.17,4.29l-1,0.03
				c-2.34,0.04-4.28-1.92-4.32-4.26c-0.04-2.35,1.83-4.4,4.18-4.4C1552.25,358,1552.28,358,1552.29,358z"/>
			<path fill="#ADF2CA" d="M1593.29,358l1,0c2.2-0.01,3.99,1.77,3.99,3.97c0.01,2.18-1.74,3.95-3.91,3.99l-1,0.02
				c-2.2,0.04-4.02-1.71-4.06-3.91s1.71-4.06,3.91-4.06C1593.24,358,1593.27,358,1593.29,358z"/>
			<path fill="#ADF2CA" d="M1626.87,340.23l0.85-0.54c1.71-1.08,3.97-0.57,5.06,1.14c1.07,1.69,0.58,3.93-1.09,5.03l-0.84,0.55
				c-1.7,1.11-3.97,0.64-5.08-1.06c-1.11-1.7-0.64-3.97,1.06-5.08C1626.83,340.26,1626.86,340.24,1626.87,340.23z"/>
			<path fill="#ADF2CA" d="M1661.51,318.29l0.84-0.54c1.56-0.99,3.63-0.53,4.62,1.04c0.98,1.55,0.53,3.59-0.99,4.59l-0.84,0.55
				c-1.55,1.02-3.63,0.58-4.65-0.97c-1.02-1.55-0.58-3.63,0.97-4.65C1661.47,318.31,1661.5,318.3,1661.51,318.29z"/>
			<path fill="#ADF2CA" d="M1696.15,296.35l0.85-0.53c1.42-0.9,3.29-0.48,4.19,0.94c0.89,1.4,0.48,3.25-0.9,4.16l-0.84,0.55
				c-1.41,0.92-3.29,0.53-4.21-0.88c-0.92-1.41-0.53-3.29,0.88-4.21C1696.12,296.37,1696.14,296.36,1696.15,296.35z"/>
			<path fill="#ADF2CA" d="M1730.83,274.48l0.85-0.53c1.23-0.78,2.87-0.41,3.64,0.83c0.77,1.22,0.42,2.83-0.78,3.62l-0.83,0.55
				c-1.22,0.8-2.87,0.47-3.67-0.76c-0.81-1.22-0.47-2.87,0.76-3.67C1730.79,274.5,1730.81,274.48,1730.83,274.48z"/>
			<path fill="#ADF2CA" d="M1765.51,252.61l0.85-0.53c1.05-0.66,2.43-0.35,3.09,0.7c0.65,1.03,0.35,2.4-0.66,3.07l-0.83,0.55
				c-1.04,0.68-2.43,0.4-3.12-0.64c-0.68-1.04-0.39-2.43,0.64-3.12C1765.48,252.63,1765.5,252.62,1765.51,252.61z"/>
			<path fill="#ADF2CA" d="M1800.2,230.75l0.85-0.53c0.85-0.54,1.98-0.28,2.52,0.58c0.53,0.84,0.28,1.95-0.54,2.49l-0.83,0.55
				c-0.85,0.56-1.99,0.33-2.54-0.52c-0.56-0.85-0.33-1.99,0.52-2.55C1800.17,230.77,1800.19,230.76,1800.2,230.75z"/>
			<path fill="#ADF2CA" d="M1834.93,208.96l0.85-0.53c0.63-0.39,1.45-0.2,1.85,0.42c0.39,0.62,0.21,1.43-0.4,1.83l-0.83,0.55
				c-0.62,0.41-1.46,0.24-1.87-0.38c-0.41-0.62-0.24-1.46,0.38-1.87C1834.91,208.97,1834.92,208.96,1834.93,208.96z"/>
			<path fill="#ADF2CA" d="M1869.67,187.18l0.85-0.53c0.39-0.24,0.91-0.12,1.15,0.27c0.24,0.38,0.13,0.89-0.25,1.14l-0.83,0.55
				c-0.39,0.26-0.92,0.15-1.18-0.24s-0.15-0.92,0.24-1.18C1869.65,187.19,1869.66,187.18,1869.67,187.18z"/>
			<path fill="#ADF2CA" d="M1904.45,165.46l0.85-0.53c0.12-0.07,0.27-0.04,0.34,0.08c0.07,0.11,0.04,0.26-0.07,0.34l-0.83,0.55
				c-0.12,0.08-0.28,0.05-0.36-0.07C1904.29,165.71,1904.33,165.55,1904.45,165.46C1904.45,165.47,1904.45,165.47,1904.45,165.46z"
				/>
		</g>
	</g>
	<g>
		<g>
			<path fill="#ADF2CA" d="M0,449.34l0.87-0.49c0.01,0,0.02,0,0.02,0.01s0,0.02-0.01,0.02l0,0L0,449.34z"/>
			<path fill="#ADF2CA" d="M35.7,429.17l0.87-0.49c0.29-0.16,0.66-0.06,0.82,0.23c0.16,0.29,0.06,0.66-0.23,0.82
				c0,0-0.01,0.01-0.02,0.01l-0.88,0.47c-0.29,0.15-0.64,0.04-0.79-0.25C35.32,429.67,35.43,429.33,35.7,429.17z"/>
			<path fill="#ADF2CA" d="M71.43,409.04l0.87-0.49c0.55-0.31,1.25-0.11,1.56,0.44c0.31,0.55,0.11,1.25-0.44,1.56
				c-0.01,0-0.02,0.01-0.02,0.01l-0.88,0.47c-0.55,0.29-1.24,0.08-1.53-0.47C70.69,410.02,70.89,409.34,71.43,409.04z"/>
			<path fill="#ADF2CA" d="M107.18,388.96l0.87-0.49c0.79-0.44,1.78-0.16,2.22,0.62c0.44,0.79,0.16,1.78-0.62,2.22
				c-0.01,0.01-0.03,0.01-0.03,0.02l-0.88,0.47c-0.79,0.42-1.77,0.12-2.19-0.67C106.12,390.36,106.41,389.39,107.18,388.96z"/>
			<path fill="#ADF2CA" d="M142.95,368.92l0.87-0.49c1-0.56,2.27-0.2,2.83,0.8c0.56,1,0.2,2.27-0.8,2.83
				c-0.01,0-0.03,0.01-0.04,0.02l-0.88,0.47c-1.01,0.54-2.27,0.16-2.8-0.85C141.6,370.71,141.96,369.47,142.95,368.92z"/>
			<path fill="#ADF2CA" d="M178.74,348.91l0.87-0.49c1.2-0.67,2.71-0.24,3.38,0.96c0.67,1.2,0.24,2.71-0.96,3.38
				c-0.01,0.01-0.03,0.02-0.04,0.02l-0.88,0.47c-1.21,0.64-2.71,0.19-3.35-1.02C177.12,351.05,177.56,349.57,178.74,348.91z"/>
			<path fill="#ADF2CA" d="M214.53,328.91l0.87-0.49c1.39-0.78,3.15-0.28,3.93,1.11s0.28,3.15-1.11,3.93
				c-0.01,0.01-0.04,0.02-0.05,0.03l-0.88,0.47c-1.4,0.75-3.15,0.22-3.89-1.18C212.65,331.39,213.17,329.67,214.53,328.91z"/>
			<path fill="#ADF2CA" d="M250.35,308.96l0.87-0.49c1.56-0.87,3.52-0.31,4.39,1.25c0.87,1.56,0.31,3.52-1.25,4.39
				c-0.01,0.01-0.03,0.02-0.04,0.02l-0.88,0.47c-1.57,0.84-3.52,0.25-4.36-1.32C248.24,311.75,248.82,309.81,250.35,308.96z"/>
			<path fill="#ADF2CA" d="M286.18,289.03l0.87-0.49c1.71-0.95,3.87-0.34,4.82,1.38s0.34,3.87-1.37,4.82
				c-0.01,0.01-0.04,0.02-0.05,0.03l-0.88,0.47c-1.72,0.92-3.86,0.28-4.79-1.45C283.87,292.09,284.5,289.97,286.18,289.03z"/>
			<path fill="#ADF2CA" d="M323.48,269.89l0.98-0.22c2.08-0.47,4.15,0.83,4.62,2.91s-0.83,4.15-2.91,4.62
				c-0.01,0-0.04,0.01-0.06,0.01l-0.98,0.21c-2.08,0.44-4.12-0.89-4.56-2.98C320.12,272.38,321.43,270.36,323.48,269.89z"/>
			<path fill="#ADF2CA" d="M363.47,260.85l0.98-0.22c2.24-0.5,4.46,0.91,4.96,3.15c0.5,2.24-0.91,4.46-3.15,4.96
				c-0.01,0-0.04,0.01-0.04,0.01l-0.98,0.21c-2.24,0.48-4.45-0.95-4.92-3.2C359.84,263.54,361.25,261.35,363.47,260.85z"/>
			<path fill="#ADF2CA" d="M403.47,251.88l0.98-0.22c2.36-0.53,4.71,0.96,5.24,3.32c0.53,2.36-0.96,4.71-3.32,5.24
				c-0.01,0-0.04,0.01-0.05,0.01l-0.98,0.21c-2.36,0.5-4.69-1.01-5.19-3.37C399.65,254.72,401.14,252.41,403.47,251.88z"/>
			<path fill="#ADF2CA" d="M443.48,242.91l0.97-0.22c2.49-0.56,4.95,1.01,5.51,3.49c0.56,2.48-1,4.95-3.49,5.51
				c-0.01,0-0.04,0.01-0.05,0.01l-0.98,0.21c-2.49,0.53-4.93-1.06-5.46-3.55C439.46,245.89,441.02,243.46,443.48,242.91z"/>
			<path fill="#ADF2CA" d="M483.49,233.94l0.98-0.22c2.61-0.58,5.19,1.06,5.78,3.66c0.58,2.61-1.05,5.19-3.66,5.78
				c-0.01,0-0.04,0.01-0.05,0.01l-0.98,0.21c-2.61,0.56-5.18-1.11-5.73-3.72C479.27,237.07,480.91,234.52,483.49,233.94z"/>
			<path fill="#ADF2CA" d="M523.5,224.97l0.98-0.22c2.73-0.61,5.44,1.11,6.04,3.84s-1.11,5.44-3.84,6.04l-0.04,0.01l-0.98,0.21
				c-2.73,0.58-5.42-1.16-6.01-3.89C519.07,228.25,520.79,225.57,523.5,224.97z"/>
			<path fill="#ADF2CA" d="M563.52,216.08l0.98-0.22c2.8-0.62,5.58,1.15,6.21,3.95c0.62,2.8-1.15,5.58-3.95,6.21l-0.03,0.01
				l-0.98,0.21c-2.81,0.6-5.57-1.18-6.17-3.99C558.96,219.45,560.74,216.7,563.52,216.08z"/>
			<path fill="#ADF2CA" d="M603.55,207.2l0.98-0.22c2.88-0.64,5.73,1.18,6.37,4.06c0.64,2.88-1.18,5.73-4.06,6.37l-0.04,0.01
				l-0.98,0.21c-2.88,0.62-5.72-1.21-6.34-4.1C598.87,210.66,600.69,207.83,603.55,207.2z"/>
			<path fill="#ADF2CA" d="M645.91,200.38l0.98,0.21c2.96,0.64,4.84,3.55,4.2,6.51c-0.63,2.96-3.55,4.84-6.5,4.2l-0.04-0.01
				l-0.98-0.22c-2.95-0.65-4.81-3.58-4.16-6.53C640.07,201.61,642.97,199.75,645.91,200.38z"/>
			<path fill="#ADF2CA" d="M686,209l0.98,0.21c3.03,0.65,4.96,3.64,4.31,6.67c-0.65,3.03-3.64,4.96-6.67,4.31l-0.04-0.01l-0.98-0.22
				c-3.03-0.67-4.93-3.67-4.26-6.69C680.01,210.25,682.98,208.35,686,209z"/>
			<path fill="#ADF2CA" d="M726.08,217.61l0.98,0.21c3.1,0.67,5.07,3.73,4.39,6.83c-0.67,3.1-3.73,5.07-6.83,4.4l-0.01,0l-0.98-0.21
				c-3.1-0.68-5.06-3.74-4.38-6.84C719.93,218.9,722.98,216.93,726.08,217.61z"/>
			<path fill="#ADF2CA" d="M766.15,226.31l0.98,0.21c3.13,0.68,5.11,3.76,4.43,6.89s-3.76,5.11-6.89,4.43l-0.01,0l-0.98-0.21
				c-3.12-0.69-5.1-3.77-4.41-6.9C759.95,227.61,763.02,225.63,766.15,226.31z"/>
			<path fill="#ADF2CA" d="M806.21,235.02l0.98,0.21c3.15,0.68,5.15,3.79,4.46,6.94c-0.68,3.15-3.79,5.15-6.94,4.47l-0.01,0
				l-0.98-0.21c-3.15-0.69-5.14-3.8-4.45-6.95S803.06,234.33,806.21,235.02z"/>
			<path fill="#ADF2CA" d="M846.28,243.72l0.98,0.21c3.17,0.69,5.19,3.82,4.5,7s-3.82,5.19-7,4.5l-0.01,0l-0.98-0.21
				c-3.17-0.7-5.18-3.83-4.48-7.01C839.98,245.03,843.11,243.02,846.28,243.72z"/>
			<path fill="#ADF2CA" d="M886.34,252.42l0.98,0.21c3.2,0.7,5.23,3.85,4.53,7.05c-0.69,3.2-3.85,5.23-7.05,4.54l-0.01,0l-0.98-0.21
				c-3.2-0.7-5.22-3.86-4.52-7.06S883.15,251.72,886.34,252.42z"/>
			<path fill="#ADF2CA" d="M926.41,261.12l0.98,0.21c3.22,0.7,5.27,3.88,4.57,7.11c-0.7,3.22-3.88,5.27-7.11,4.57l-0.01,0
				l-0.98-0.21c-3.22-0.71-5.26-3.89-4.55-7.11C920.02,262.46,923.19,260.41,926.41,261.12z"/>
			<path fill="#ADF2CA" d="M964.63,268.05l0.99-0.11c3.28-0.35,6.23,2.02,6.59,5.3c0.35,3.28-2.01,6.23-5.29,6.59l-0.99,0.11
				c-3.28,0.36-6.24-2.01-6.6-5.29c-0.36-3.28,2.01-6.24,5.29-6.6L964.63,268.05z"/>
			<path fill="#ADF2CA" d="M1005.4,263.65l0.99-0.11c3.26-0.35,6.19,2,6.54,5.26s-1.99,6.18-5.25,6.54l-0.99,0.11
				c-3.26,0.36-6.19-1.99-6.55-5.25c-0.36-3.26,1.99-6.19,5.25-6.55L1005.4,263.65z"/>
			<path fill="#ADF2CA" d="M1046.16,259l0.99,0.02c3.23-0.35,6.14,2.05,6.49,5.29s-1.98,6.17-5.21,6.52l-0.99,0.13
				c-3.23,0.36-6.14-2.1-6.5-5.33c-0.36-3.23,1.98-5.62,5.21-6.62H1046.16z"/>
			<path fill="#ADF2CA" d="M1086.93,254.86l0.99-0.11c3.21-0.35,6.09,1.97,6.44,5.18s-1.96,6.09-5.17,6.43l-0.99,0.11
				c-3.21,0.35-6.09-1.96-6.45-5.17s1.96-6.1,5.17-6.45L1086.93,254.86z"/>
			<path fill="#ADF2CA" d="M1127.69,250.46l0.99-0.11c3.18-0.34,6.04,1.96,6.38,5.14c0.34,3.18-1.95,6.04-5.13,6.38l-0.99,0.11
				c-3.18,0.35-6.05-1.95-6.4-5.13c-0.35-3.18,1.95-6.05,5.13-6.4L1127.69,250.46z"/>
			<path fill="#ADF2CA" d="M1168.45,246.07l0.99-0.11c3.16-0.34,5.99,1.94,6.33,5.1c0.34,3.16-1.93,5.99-5.09,6.33l-0.99,0.11
				c-3.16,0.35-6-1.93-6.35-5.09c-0.35-3.16,1.93-6,5.09-6.35L1168.45,246.07z"/>
			<path fill="#ADF2CA" d="M1209.22,241.74l0.99-0.1c3.09-0.33,5.86,1.92,6.19,5.01c0.33,3.08-1.9,5.84-4.97,6.19l-0.99,0.11
				c-3.09,0.35-5.88-1.88-6.23-4.97c-0.35-3.09,1.88-5.88,4.97-6.23L1209.22,241.74z"/>
			<path fill="#ADF2CA" d="M1250,237.44l1-0.1c3.02-0.32,5.72,1.87,6.04,4.88c0.32,3-1.85,5.7-4.85,6.03l-0.99,0.11
				c-3.02,0.34-5.74-1.83-6.07-4.85c-0.34-3.02,1.83-5.73,4.85-6.07L1250,237.44z"/>
			<path fill="#ADF2CA" d="M1288.32,230.22l0.92-0.4c2.71-1.17,5.87,0.07,7.04,2.79c1.17,2.7-0.07,5.84-2.76,7.02l-0.91,0.4
				c-2.71,1.19-5.87-0.04-7.06-2.74s0.03-5.87,2.74-7.06L1288.32,230.22z"/>
			<path fill="#ADF2CA" d="M1325.95,213.94l0.92-0.4c2.64-1.14,5.71,0.07,6.86,2.72c1.14,2.63-0.06,5.69-2.68,6.84l-0.92,0.4
				c-2.64,1.16-5.72-0.03-6.88-2.67s0.04-5.72,2.67-6.88L1325.95,213.94z"/>
			<path fill="#ADF2CA" d="M1363.58,197.66l0.92-0.4c2.57-1.11,5.56,0.07,6.67,2.64c1.11,2.56-0.06,5.54-2.61,6.66l-0.92,0.4
				c-2.57,1.13-5.57-0.03-6.7-2.6c-1.13-2.57,0.03-5.56,2.6-6.7L1363.58,197.66z"/>
			<path fill="#ADF2CA" d="M1401.25,181.46l0.92-0.4c2.46-1.06,5.32,0.08,6.38,2.54c1.05,2.45-0.07,5.28-2.49,6.36l-0.91,0.41
				c-2.45,1.09-5.33-0.02-6.42-2.47s0.02-5.33,2.47-6.41C1401.21,181.48,1401.24,181.46,1401.25,181.46z"/>
			<path fill="#ADF2CA" d="M1438.92,165.27l0.92-0.4c2.35-1.01,5.07,0.08,6.08,2.42c1,2.33-0.06,5.03-2.38,6.06l-0.91,0.41
				c-2.34,1.04-5.07-0.02-6.11-2.36s0.02-5.08,2.36-6.11C1438.88,165.28,1438.91,165.27,1438.92,165.27z"/>
			<path fill="#ADF2CA" d="M1476.58,149.07l0.92-0.39c2.23-0.96,4.82,0.07,5.78,2.3c0.95,2.22-0.06,4.78-2.26,5.76l-0.91,0.41
				c-2.22,0.99-4.82-0.02-5.81-2.24s0.02-4.82,2.24-5.81C1476.54,149.09,1476.57,149.08,1476.58,149.07z"/>
			<path fill="#ADF2CA" d="M1514.25,132.88l0.92-0.4c2.12-0.91,4.57,0.07,5.48,2.18c0.9,2.1-0.06,4.53-2.14,5.46l-0.91,0.41
				c-2.11,0.93-4.57-0.02-5.51-2.12s0.02-4.57,2.12-5.51C1514.21,132.9,1514.24,132.88,1514.25,132.88z"/>
			<path fill="#ADF2CA" d="M1551.94,116.74l0.92-0.39c1.97-0.84,4.25,0.07,5.09,2.04c0.83,1.95-0.06,4.2-1.99,5.06l-0.91,0.41
				c-1.96,0.87-4.26-0.01-5.13-1.97c-0.87-1.96,0.01-4.26,1.97-5.13C1551.9,116.76,1551.93,116.75,1551.94,116.74z"/>
			<path fill="#ADF2CA" d="M1589.64,100.63l0.92-0.39c1.81-0.77,3.9,0.07,4.67,1.87c0.76,1.79-0.05,3.86-1.82,4.65l-0.91,0.41
				c-1.8,0.8-3.91-0.01-4.71-1.8s0.01-3.91,1.81-4.71C1589.6,100.65,1589.63,100.63,1589.64,100.63z"/>
			<path fill="#ADF2CA" d="M1631.26,97l1-0.12c1.79,0.01,3.23,1.41,3.21,3.2c-0.01,1.77-1.45,3.17-3.21,3.18l-1-0.01
				c-1.79,0.01-3.26-1.31-3.27-3.11c-0.01-1.79,1.43-3.16,3.22-3.16C1631.22,97,1631.25,97,1631.26,97z"/>
			<path fill="#ADF2CA" d="M1672.26,97l1,0.05c1.6,0.02,2.89,1.35,2.87,2.95c-0.02,1.58-1.3,2.87-2.87,2.88l-1,0.02
				c-1.61,0.02-2.92-1.32-2.94-2.92c-0.02-1.61,1.27-2.98,2.88-2.98C1672.21,97,1672.24,97,1672.26,97z"/>
			<path fill="#ADF2CA" d="M1713.26,97l1,0.26c1.38,0.01,2.48,1.27,2.47,2.64c-0.01,1.36-1.12,2.52-2.47,2.53l-1,0.04
				c-1.38,0.01-2.52-1.33-2.53-2.71c-0.01-1.38,1.1-1.76,2.48-2.76C1713.22,97,1713.24,97,1713.26,97z"/>
			<path fill="#ADF2CA" d="M1754.26,98l1-0.04c1.15,0.01,2.08,0.93,2.07,2.09c-0.01,1.14-0.94,2.05-2.07,2.06l-1,0
				c-1.16,0.01-2.11-0.87-2.12-2.03c-0.01-1.16,0.92-2.07,2.08-2.07C1754.23,98,1754.25,98,1754.26,98z"/>
			<path fill="#ADF2CA" d="M1795.26,98l1,0.19c0.91,0.01,1.63,0.84,1.62,1.75c-0.01,0.89-0.73,1.65-1.62,1.66l-1,0.03
				c-0.91,0.01-1.66-0.88-1.67-1.8c-0.01-0.91,0.72-1.83,1.63-1.83C1795.23,98,1795.25,98,1795.26,98z"/>
			<path fill="#ADF2CA" d="M1836.26,99l1-0.07c0.63,0.01,1.14,0.49,1.14,1.12c-0.01,0.63-0.51,1.11-1.14,1.12l-1,0
				c-0.64,0.01-1.17-0.43-1.18-1.07c-0.01-0.64,0.51-1.1,1.15-1.1C1836.24,99,1836.25,99,1836.26,99z"/>
			<path fill="#ADF2CA" d="M1877.26,99l1,0.21c0.33,0,0.6,0.37,0.59,0.71c0,0.33-0.27,0.64-0.59,0.64l-1,0.04
				c-0.34,0-0.62-0.45-0.63-0.79c0-0.34,0.27-0.81,0.61-0.81C1877.24,99,1877.25,99,1877.26,99z"/>
			<path fill="#ADF2CA" d="M1918.26,99.97l1,0.01c0.01,0,0.01,0,0.01,0.01s0,0.01-0.01,0.01l-1,0.01c-0.01,0-0.03-0.01-0.03-0.02
				C1918.23,99.99,1918.24,99.98,1918.26,99.97C1918.26,99.97,1918.26,99.97,1918.26,99.97z"/>
		</g>
	</g>
	<g>
		<g>
			<path fill="#ADF2CA" d="M0,816.14l0.91-0.41c0.01,0,0.01,0,0.02,0.01c0,0.01,0,0.02-0.01,0.02l0,0L0,816.14z"/>
			<path fill="#ADF2CA" d="M37.35,799.21l0.91-0.41c0.29-0.13,0.64,0,0.77,0.29c0.13,0.29,0,0.64-0.29,0.77c0,0-0.01,0-0.01,0.01
				l-0.92,0.39c-0.29,0.12-0.62-0.01-0.74-0.3C36.94,799.67,37.07,799.34,37.35,799.21z"/>
			<path fill="#ADF2CA" d="M74.7,782.31l0.91-0.41c0.56-0.25,1.22,0,1.47,0.56s0,1.22-0.56,1.47c-0.01,0-0.02,0.01-0.02,0.01
				l-0.92,0.39c-0.56,0.24-1.21-0.02-1.45-0.59C73.91,783.19,74.16,782.56,74.7,782.31z"/>
			<path fill="#ADF2CA" d="M112.09,765.47l0.91-0.41c0.8-0.36,1.74,0,2.1,0.79c0.36,0.8,0,1.74-0.79,2.1
				c-0.01,0-0.03,0.01-0.03,0.01l-0.92,0.39c-0.8,0.34-1.72-0.04-2.06-0.84C110.95,766.73,111.31,765.82,112.09,765.47z"/>
			<path fill="#ADF2CA" d="M149.48,748.65l0.91-0.41c1.02-0.46,2.22,0,2.68,1.02s0,2.22-1.02,2.68c-0.01,0-0.03,0.01-0.04,0.02
				l-0.92,0.39c-1.03,0.44-2.21-0.04-2.65-1.07C148.02,750.27,148.48,749.1,149.48,748.65z"/>
			<path fill="#ADF2CA" d="M186.9,731.88l0.91-0.41c1.22-0.55,2.65,0,3.2,1.22c0.55,1.22,0,2.65-1.22,3.2
				c-0.01,0-0.03,0.01-0.04,0.02l-0.92,0.39c-1.22,0.52-2.64-0.05-3.16-1.27C185.15,733.82,185.71,732.42,186.9,731.88z"/>
			<path fill="#ADF2CA" d="M224.32,715.12l0.91-0.41c1.42-0.63,3.08,0,3.71,1.41s0,3.08-1.41,3.71c-0.01,0.01-0.04,0.02-0.05,0.02
				l-0.92,0.39c-1.42,0.6-3.07-0.06-3.67-1.48C222.29,717.36,222.93,715.74,224.32,715.12z"/>
			<path fill="#ADF2CA" d="M261.75,698.39l0.91-0.41c1.59-0.71,3.46,0.01,4.17,1.6s-0.01,3.46-1.6,4.17c-0.01,0-0.03,0.02-0.04,0.02
				l-0.92,0.39c-1.6,0.68-3.45-0.06-4.13-1.66C259.46,700.92,260.18,699.09,261.75,698.39z"/>
			<path fill="#ADF2CA" d="M299.2,681.7l0.91-0.41c1.75-0.78,3.79,0.01,4.57,1.75c0.78,1.75-0.01,3.79-1.75,4.57
				c-0.01,0-0.04,0.02-0.05,0.02l-0.92,0.39c-1.75,0.75-3.78-0.06-4.53-1.82C296.69,684.47,297.48,682.46,299.2,681.7z"/>
			<path fill="#ADF2CA" d="M340.12,675.01l0.99,0.11c2.07,0.23,3.55,2.1,3.32,4.16c-0.23,2.07-2.1,3.55-4.16,3.32
				c-0.01,0-0.04-0.01-0.06-0.01l-0.99-0.13c-2.06-0.26-3.52-2.15-3.25-4.2C336.23,676.23,338.08,674.78,340.12,675.01z"/>
			<path fill="#ADF2CA" d="M380.86,679.6l0.99,0.11c2.24,0.25,3.84,2.27,3.59,4.5c-0.25,2.23-2.27,3.84-4.5,3.59
				c-0.01,0-0.05-0.01-0.06-0.01l-0.99-0.13c-2.23-0.28-3.8-2.32-3.52-4.55C376.66,680.92,378.66,679.35,380.86,679.6z"/>
			<path fill="#ADF2CA" d="M421.6,684.26l0.99,0.11c2.36,0.27,4.05,2.4,3.78,4.76s-2.4,4.05-4.76,3.78l-0.05-0.01l-0.99-0.12
				c-2.35-0.3-4.02-2.44-3.73-4.8C417.14,685.65,419.26,683.99,421.6,684.26z"/>
			<path fill="#ADF2CA" d="M462.33,688.93l0.99,0.11c2.48,0.28,4.26,2.53,3.98,5.01c-0.28,2.48-2.53,4.26-5,3.98l-0.05-0.01
				l-0.99-0.12c-2.47-0.31-4.23-2.57-3.92-5.04C457.64,690.39,459.88,688.65,462.33,688.93z"/>
			<path fill="#ADF2CA" d="M503.06,693.6l0.99,0.11c2.6,0.3,4.47,2.65,4.17,5.25c-0.3,2.6-2.65,4.47-5.25,4.17l-0.05-0.01
				l-0.99-0.12c-2.59-0.33-4.43-2.69-4.11-5.29C498.15,695.14,500.49,693.3,503.06,693.6z"/>
			<path fill="#ADF2CA" d="M543.8,698.27l0.99,0.11c2.72,0.31,4.67,2.77,4.36,5.49c-0.31,2.72-2.77,4.67-5.49,4.36l-0.05-0.01
				l-0.99-0.12c-2.71-0.34-4.64-2.82-4.3-5.53C538.65,699.88,541.1,697.96,543.8,698.27z"/>
			<path fill="#ADF2CA" d="M584.52,702.98l0.99,0.12c2.82,0.33,4.83,2.88,4.5,5.69c-0.33,2.82-2.88,4.83-5.7,4.5l-0.03,0l-0.99-0.12
				c-2.81-0.35-4.81-2.91-4.46-5.72C579.18,704.65,581.73,702.66,584.52,702.98z"/>
			<path fill="#ADF2CA" d="M625.25,707.74l0.99,0.12c2.89,0.34,4.96,2.95,4.62,5.84s-2.95,4.96-5.84,4.62l-0.03,0l-0.99-0.12
				c-2.88-0.36-4.94-2.98-4.58-5.87C619.77,709.45,622.38,707.41,625.25,707.74z"/>
			<path fill="#ADF2CA" d="M664.68,706.42l0.99-0.12c2.96-0.37,5.66,1.74,6.02,4.7c0.37,2.96-1.74,5.66-4.7,6.02l-0.03,0l-0.99,0.12
				c-2.96,0.35-5.64-1.77-5.99-4.73C659.64,709.45,661.74,706.78,664.68,706.42z"/>
			<path fill="#ADF2CA" d="M705.38,701.39l0.99-0.12c3.03-0.37,5.79,1.78,6.17,4.81c0.37,3.03-1.78,5.79-4.81,6.17l-0.04,0
				l-0.99,0.12c-3.03,0.35-5.78-1.82-6.13-4.85C700.21,704.5,702.36,701.77,705.38,701.39z"/>
			<path fill="#ADF2CA" d="M746.07,696.37l0.99-0.12c3.11-0.38,5.93,1.82,6.32,4.93c0.38,3.11-1.82,5.93-4.93,6.32l-0.04,0
				l-0.99,0.12c-3.11,0.36-5.92-1.86-6.28-4.97C740.78,699.56,742.98,696.75,746.07,696.37z"/>
			<path fill="#ADF2CA" d="M786.76,691.39l0.99-0.12c3.16-0.38,6.03,1.87,6.41,5.03s-1.87,6.03-5.03,6.41l-0.01,0l-0.99,0.12
				c-3.16,0.38-6.02-1.88-6.4-5.04C781.36,694.63,783.6,691.76,786.76,691.39z"/>
			<path fill="#ADF2CA" d="M827.46,686.45l0.99-0.12c3.18-0.39,6.08,1.88,6.46,5.06c0.39,3.18-1.88,6.08-5.06,6.46l-0.01,0
				l-0.99,0.12c-3.18,0.38-6.07-1.89-6.45-5.08S824.28,686.83,827.46,686.45z"/>
			<path fill="#ADF2CA" d="M868.17,681.52l0.99-0.12c3.21-0.39,6.12,1.9,6.51,5.1s-1.9,6.12-5.1,6.51l-0.01,0l-0.99,0.12
				c-3.21,0.38-6.12-1.91-6.5-5.12S864.96,681.9,868.17,681.52z"/>
			<path fill="#ADF2CA" d="M908.87,676.59l0.99-0.12c3.23-0.39,6.17,1.91,6.56,5.14c0.39,3.23-1.91,6.17-5.14,6.56l-0.01,0
				l-0.99,0.12c-3.23,0.38-6.16-1.92-6.55-5.15S905.64,676.97,908.87,676.59z"/>
			<path fill="#ADF2CA" d="M949.57,671.65l0.99-0.12c3.26-0.39,6.21,1.92,6.61,5.18s-1.92,6.21-5.18,6.61l-0.01,0l-0.99,0.12
				c-3.25,0.39-6.21-1.94-6.6-5.19C944,674.99,946.32,672.04,949.57,671.65z"/>
			<path fill="#ADF2CA" d="M982.83,654.27l0.84-0.55c2.76-1.81,6.47-1.04,8.28,1.72c1.81,2.76,1.04,6.47-1.72,8.28l-0.01,0.01
				l-0.84,0.55c-2.76,1.81-6.47,1.03-8.28-1.73C979.3,659.78,980.06,656.08,982.83,654.27z"/>
			<path fill="#ADF2CA" d="M1017.13,631.81l0.84-0.55c2.76-1.81,6.46-1.03,8.27,1.73c1.8,2.76,1.04,6.46-1.72,8.26l-0.84,0.55
				c-2.76,1.81-6.46,1.04-8.27-1.71s-1.04-6.46,1.71-8.27L1017.13,631.81z"/>
			<path fill="#ADF2CA" d="M1051.45,609.38l0.84-0.55c2.74-1.79,6.42-1.02,8.21,1.72s1.03,6.41-1.71,8.2l-0.84,0.55
				c-2.74,1.8-6.42,1.04-8.21-1.7s-1.04-6.42,1.7-8.21L1051.45,609.38z"/>
			<path fill="#ADF2CA" d="M1085.77,586.95l0.84-0.55c2.72-1.78,6.37-1.01,8.15,1.71c1.78,2.72,1.02,6.36-1.7,8.14l-0.84,0.55
				c-2.72,1.78-6.37,1.03-8.15-1.69c-1.78-2.72-1.03-6.37,1.69-8.15L1085.77,586.95z"/>
			<path fill="#ADF2CA" d="M1120.09,564.52l0.84-0.55c2.7-1.76,6.32-1.01,8.08,1.69s1.02,6.31-1.68,8.08l-0.84,0.55
				c-2.7,1.77-6.32,1.02-8.09-1.68C1116.63,569.92,1117.38,566.29,1120.09,564.52L1120.09,564.52z"/>
			<path fill="#ADF2CA" d="M1154.41,542.09l0.84-0.55c2.68-1.75,6.27-1,8.02,1.68c1.75,2.68,1.01,6.26-1.67,8.02l-0.84,0.55
				c-2.68,1.76-6.27,1.01-8.03-1.66c-1.76-2.68-1.01-6.27,1.66-8.03L1154.41,542.09z"/>
			<path fill="#ADF2CA" d="M1188.73,519.65l0.84-0.55c2.66-1.74,6.22-0.99,7.96,1.67c1.74,2.66,1,6.22-1.66,7.95l-0.84,0.55
				c-2.66,1.74-6.22,1-7.97-1.65s-1-6.22,1.65-7.97L1188.73,519.65z"/>
			<path fill="#ADF2CA" d="M1223.08,497.28l0.84-0.55c2.61-1.7,6.1-0.96,7.8,1.65c1.69,2.6,0.96,6.07-1.62,7.78l-0.83,0.55
				c-2.6,1.72-6.1,1-7.82-1.6c-1.72-2.6-1-6.1,1.6-7.82L1223.08,497.28z"/>
			<path fill="#ADF2CA" d="M1257.45,474.92l0.84-0.55c2.55-1.66,5.96-0.94,7.62,1.61c1.65,2.54,0.94,5.93-1.58,7.59l-0.84,0.55
				c-2.54,1.68-5.95,0.98-7.63-1.56c-1.67-2.54-0.97-5.95,1.56-7.63L1257.45,474.92z"/>
			<path fill="#ADF2CA" d="M1296.55,458.58l0.99-0.16c2.93-0.47,5.68,1.52,6.15,4.45c0.47,2.92-1.51,5.66-4.42,6.15l-0.99,0.17
				c-2.93,0.49-5.7-1.49-6.19-4.41c-0.49-2.93,1.49-5.7,4.41-6.19L1296.55,458.58z"/>
			<path fill="#ADF2CA" d="M1337.03,452.08l0.99-0.16c2.86-0.46,5.54,1.49,6,4.34c0.46,2.84-1.47,5.52-4.31,5.99l-0.99,0.16
				c-2.85,0.48-5.55-1.45-6.03-4.3s1.45-5.55,4.3-6.03L1337.03,452.08z"/>
			<path fill="#ADF2CA" d="M1377.52,445.59l0.99-0.16c2.78-0.45,5.4,1.45,5.85,4.23c0.44,2.77-1.43,5.38-4.2,5.84l-0.99,0.17
				c-2.78,0.46-5.41-1.41-5.88-4.19c-0.46-2.78,1.41-5.41,4.19-5.88L1377.52,445.59z"/>
			<path fill="#ADF2CA" d="M1418.01,439.15L1419,439c2.68-0.42,5.19,1.4,5.61,4.08c0.42,2.66-1.38,5.16-4.03,5.6l-0.99,0.17
				c-2.68,0.45-5.21-1.35-5.66-4.02c-0.45-2.67,1.35-5.21,4.02-5.66L1418.01,439.15z"/>
			<path fill="#ADF2CA" d="M1458.5,432.75l0.99-0.16c2.56-0.4,4.96,1.34,5.36,3.9c0.4,2.54-1.32,4.92-3.85,5.35l-0.99,0.17
				c-2.55,0.43-4.98-1.29-5.41-3.84c-0.43-2.55,1.29-4.98,3.84-5.41L1458.5,432.75z"/>
			<path fill="#ADF2CA" d="M1499,426.34l0.99-0.16c2.44-0.39,4.72,1.28,5.11,3.71c0.38,2.42-1.26,4.69-3.66,5.1l-0.99,0.17
				c-2.43,0.41-4.74-1.23-5.15-3.66s1.23-4.74,3.66-5.15L1499,426.34z"/>
			<path fill="#ADF2CA" d="M1539.5,419.93l0.99-0.16c2.31-0.37,4.49,1.21,4.85,3.53c0.36,2.3-1.19,4.46-3.48,4.85l-0.99,0.17
				c-2.31,0.39-4.51-1.17-4.9-3.48s1.17-4.51,3.48-4.9L1539.5,419.93z"/>
			<path fill="#ADF2CA" d="M1580,413.55l0.99-0.15c2.18-0.34,4.22,1.15,4.56,3.33c0.34,2.16-1.12,4.18-3.27,4.55l-0.99,0.17
				c-2.18,0.37-4.24-1.09-4.61-3.26c-0.37-2.18,1.09-4.24,3.26-4.61C1579.95,413.56,1579.99,413.55,1580,413.55z"/>
			<path fill="#ADF2CA" d="M1616.1,399.76l0.85-0.53c1.73-1.08,4-0.55,5.07,1.18c1.07,1.71,0.55,3.95-1.13,5.04l-0.84,0.54
				c-1.71,1.1-4,0.61-5.1-1.1c-1.1-1.71-0.61-4,1.11-5.1C1616.06,399.79,1616.08,399.77,1616.1,399.76z"/>
			<path fill="#ADF2CA" d="M1650.9,378.09l0.85-0.53c1.58-0.98,3.66-0.5,4.65,1.08c0.97,1.57,0.51,3.62-1.04,4.62l-0.84,0.54
				c-1.57,1.01-3.66,0.56-4.67-1.01c-1.01-1.57-0.56-3.66,1.01-4.67C1650.86,378.11,1650.89,378.09,1650.9,378.09z"/>
			<path fill="#ADF2CA" d="M1685.7,356.41l0.85-0.53c1.44-0.9,3.33-0.46,4.22,0.98c0.89,1.42,0.46,3.29-0.94,4.2l-0.84,0.54
				c-1.43,0.92-3.33,0.51-4.25-0.92c-0.92-1.43-0.51-3.33,0.92-4.25C1685.67,356.43,1685.69,356.42,1685.7,356.41z"/>
			<path fill="#ADF2CA" d="M1720.54,334.79l0.85-0.53c1.26-0.78,2.92-0.39,3.71,0.87c0.78,1.25,0.4,2.88-0.83,3.68l-0.84,0.54
				c-1.25,0.81-2.93,0.45-3.74-0.8c-0.81-1.25-0.45-2.93,0.8-3.74C1720.5,334.81,1720.53,334.8,1720.54,334.79z"/>
			<path fill="#ADF2CA" d="M1755.38,313.18l0.85-0.53c1.08-0.67,2.5-0.34,3.17,0.74c0.66,1.07,0.34,2.46-0.71,3.14l-0.84,0.54
				c-1.07,0.69-2.5,0.39-3.2-0.69c-0.69-1.07-0.39-2.5,0.69-3.19C1755.36,313.2,1755.38,313.19,1755.38,313.18z"/>
			<path fill="#ADF2CA" d="M1790.23,291.58l0.85-0.53c0.9-0.56,2.07-0.28,2.63,0.62c0.55,0.89,0.28,2.05-0.59,2.61l-0.84,0.54
				c-0.89,0.58-2.08,0.32-2.65-0.57c-0.58-0.89-0.32-2.08,0.57-2.65C1790.21,291.59,1790.22,291.58,1790.23,291.58z"/>
			<path fill="#ADF2CA" d="M1825.12,270.04l0.85-0.52c0.68-0.42,1.56-0.21,1.98,0.47c0.41,0.67,0.21,1.54-0.44,1.96l-0.84,0.54
				c-0.67,0.44-1.57,0.25-2-0.43s-0.25-1.57,0.43-2C1825.1,270.05,1825.12,270.04,1825.12,270.04z"/>
			<path fill="#ADF2CA" d="M1860.01,248.5l0.85-0.53c0.45-0.28,1.04-0.14,1.32,0.31c0.28,0.45,0.14,1.03-0.29,1.31l-0.84,0.54
				c-0.45,0.29-1.05,0.17-1.35-0.29c-0.29-0.45-0.17-1.05,0.29-1.35C1860,248.51,1860.01,248.51,1860.01,248.5z"/>
			<path fill="#ADF2CA" d="M1894.95,227.04l0.85-0.52c0.19-0.11,0.43-0.06,0.54,0.13c0.11,0.18,0.06,0.42-0.12,0.54l-0.84,0.55
				c-0.19,0.12-0.44,0.07-0.57-0.12C1894.7,227.43,1894.75,227.17,1894.95,227.04C1894.95,227.05,1894.95,227.04,1894.95,227.04z"/>
		</g>
	</g>
</g>
<g>
	<g>
		<g>
			<path fill="#ADF2CA" d="M1920,1676.74l-0.98-0.17c-0.01,0-0.01-0.01-0.01-0.02c0-0.01,0.01-0.01,0.02-0.01h0L1920,1676.74z"/>
			<path fill="#ADF2CA" d="M1879.62,1669.62l-0.98-0.17c-0.33-0.06-0.54-0.37-0.48-0.69c0.06-0.32,0.37-0.54,0.69-0.48
				c0,0,0.01,0,0.02,0l0.98,0.2c0.32,0.06,0.52,0.37,0.45,0.69C1880.23,1669.47,1879.93,1669.67,1879.62,1669.62z"/>
			<path fill="#ADF2CA" d="M1839.25,1662.46l-0.98-0.18c-0.62-0.11-1.03-0.7-0.92-1.32c0.11-0.62,0.7-1.03,1.32-0.92
				c0.01,0,0.02,0,0.03,0l0.98,0.2c0.61,0.12,1,0.72,0.88,1.33C1840.43,1662.17,1839.85,1662.57,1839.25,1662.46z"/>
			<path fill="#ADF2CA" d="M1798.88,1655.24l-0.98-0.18c-0.88-0.16-1.47-1-1.31-1.88c0.16-0.88,1-1.47,1.88-1.31
				c0.01,0,0.03,0.01,0.04,0.01l0.98,0.2c0.87,0.18,1.43,1.03,1.26,1.9C1800.57,1654.83,1799.74,1655.39,1798.88,1655.24z"/>
			<path fill="#ADF2CA" d="M1758.53,1647.98l-0.98-0.18c-1.12-0.2-1.87-1.28-1.67-2.4c0.2-1.12,1.28-1.87,2.4-1.67
				c0.01,0,0.03,0.01,0.04,0.01l0.98,0.2c1.12,0.22,1.84,1.31,1.61,2.43C1760.69,1647.47,1759.63,1648.18,1758.53,1647.98z"/>
			<path fill="#ADF2CA" d="M1718.18,1640.68l-0.98-0.18c-1.34-0.24-2.23-1.53-1.99-2.87c0.24-1.34,1.53-2.23,2.87-1.99
				c0.01,0,0.04,0.01,0.05,0.01l0.98,0.2c1.33,0.27,2.19,1.56,1.93,2.9C1720.77,1640.06,1719.5,1640.92,1718.18,1640.68z"/>
			<path fill="#ADF2CA" d="M1677.84,1633.38l-0.98-0.18c-1.56-0.28-2.59-1.77-2.31-3.33c0.28-1.56,1.77-2.59,3.33-2.31
				c0.01,0,0.04,0.01,0.05,0.01l0.98,0.2c1.55,0.31,2.55,1.82,2.24,3.37C1680.84,1632.66,1679.36,1633.65,1677.84,1633.38z"/>
			<path fill="#ADF2CA" d="M1637.5,1626.02l-0.98-0.18c-1.74-0.32-2.9-1.99-2.58-3.74c0.32-1.74,1.99-2.9,3.73-2.58
				c0.01,0,0.04,0.01,0.05,0.01l0.98,0.2c1.73,0.35,2.86,2.03,2.52,3.77C1640.88,1625.21,1639.22,1626.33,1637.5,1626.02z"/>
			<path fill="#ADF2CA" d="M1596.62,1618.01l-0.93-0.37c-1.81-0.72-2.68-2.77-1.96-4.58s2.77-2.68,4.58-1.96
				c0.01,0,0.04,0.02,0.05,0.02l0.92,0.39c1.79,0.75,2.63,2.81,1.89,4.6C1600.43,1617.88,1598.4,1618.72,1596.62,1618.01z"/>
			<path fill="#ADF2CA" d="M1558.56,1602.77l-0.93-0.37c-1.97-0.79-2.92-3.02-2.13-4.99c0.79-1.97,3.02-2.92,4.99-2.13
				c0.01,0,0.04,0.02,0.05,0.02l0.92,0.39c1.95,0.82,2.87,3.06,2.05,5.01C1562.71,1602.62,1560.5,1603.54,1558.56,1602.77z"/>
			<path fill="#ADF2CA" d="M1520.5,1587.51l-0.93-0.37c-2.12-0.85-3.14-3.26-2.29-5.38c0.85-2.12,3.26-3.14,5.38-2.29
				c0.01,0,0.04,0.01,0.04,0.02l0.92,0.38c2.11,0.88,3.1,3.29,2.23,5.4C1524.99,1587.36,1522.6,1588.35,1520.5,1587.51z"/>
			<path fill="#ADF2CA" d="M1482.48,1572.18l-0.93-0.37c-2.23-0.9-3.32-3.44-2.42-5.68c0.9-2.23,3.44-3.32,5.68-2.42
				c0.01,0,0.04,0.02,0.04,0.02l0.92,0.38c2.22,0.92,3.27,3.47,2.35,5.7C1487.21,1572.02,1484.69,1573.07,1482.48,1572.18z"/>
			<path fill="#ADF2CA" d="M1444.45,1556.85l-0.93-0.37c-2.35-0.95-3.49-3.62-2.54-5.97s3.62-3.49,5.97-2.54
				c0.01,0,0.04,0.02,0.05,0.02l0.92,0.38c2.34,0.97,3.44,3.65,2.47,5.99C1449.43,1556.68,1446.77,1557.79,1444.45,1556.85z"/>
			<path fill="#ADF2CA" d="M1406.42,1541.53l-0.93-0.37c-2.46-0.99-3.66-3.8-2.67-6.26c0.99-2.47,3.8-3.66,6.26-2.67
				c0.01,0,0.04,0.02,0.05,0.02l0.92,0.38c2.45,1.02,3.61,3.83,2.59,6.29C1411.64,1541.35,1408.86,1542.51,1406.42,1541.53z"/>
			<path fill="#ADF2CA" d="M1368.39,1526.2l-0.93-0.37c-2.58-1.04-3.83-3.98-2.79-6.56c1.04-2.58,3.98-3.83,6.56-2.79
				c0.01,0,0.04,0.02,0.05,0.02l0.92,0.38c2.57,1.07,3.78,4.01,2.71,6.58C1373.86,1526.01,1370.95,1527.23,1368.39,1526.2z"/>
			<path fill="#ADF2CA" d="M1330.39,1510.8l-0.93-0.38c-2.65-1.08-3.93-4.1-2.86-6.75s4.1-3.93,6.75-2.86l0.03,0.01l0.92,0.38
				c2.64,1.09,3.9,4.12,2.81,6.77C1336.04,1510.61,1333.03,1511.87,1330.39,1510.8z"/>
			<path fill="#ADF2CA" d="M1292.4,1495.39l-0.93-0.38c-2.72-1.1-4.04-4.21-2.93-6.93c1.11-2.72,4.21-4.04,6.93-2.93l0.03,0.01
				l0.92,0.38c2.71,1.12,4.01,4.23,2.88,6.95C1298.2,1495.2,1295.11,1496.49,1292.4,1495.39z"/>
			<path fill="#ADF2CA" d="M1254.28,1488.38l-1-0.06c-3.01-0.18-5.3-2.77-5.12-5.78c0.18-3.01,2.77-5.3,5.78-5.11l0.04,0l1,0.07
				c3.01,0.2,5.28,2.81,5.07,5.81C1259.85,1486.29,1257.27,1488.56,1254.28,1488.38z"/>
			<path fill="#ADF2CA" d="M1213.35,1485.88l-1-0.06c-3.08-0.19-5.43-2.84-5.24-5.92c0.19-3.08,2.84-5.43,5.92-5.24l0.04,0l1,0.07
				c3.08,0.21,5.41,2.88,5.2,5.96C1219.07,1483.74,1216.42,1486.06,1213.35,1485.88z"/>
			<path fill="#ADF2CA" d="M1172.43,1483.38l-1-0.06c-3.16-0.19-5.56-2.91-5.37-6.07s2.91-5.56,6.07-5.37l0.04,0l1,0.07
				c3.16,0.21,5.54,2.95,5.33,6.1C1178.28,1481.19,1175.57,1483.57,1172.43,1483.38z"/>
			<path fill="#ADF2CA" d="M1131.51,1480.8l-1-0.06c-3.19-0.2-5.61-3.04-5.41-6.23c0.2-3.19,2.95-5.5,6.14-5.5h0.01l1,0.16
				c3.19,0.21,5.6,3.01,5.39,6.2C1137.44,1478.54,1134.7,1481.01,1131.51,1480.8z"/>
			<path fill="#ADF2CA" d="M1090.59,1478.21l-1-0.06c-3.21-0.2-5.65-2.73-5.45-5.94s2.97-6.2,6.19-5.2h0.01l1-0.18
				c3.21,0.21,5.64,2.86,5.43,6.07C1096.57,1476.11,1093.8,1478.42,1090.59,1478.21z"/>
			<path fill="#ADF2CA" d="M1049.68,1475.62l-1-0.06c-3.24-0.21-5.7-2.91-5.49-6.15c0.21-3.24,3-5.41,6.23-5.41h0.01l1-0.02
				c3.24,0.21,5.69,2.97,5.48,6.2C1055.7,1473.42,1052.91,1475.83,1049.68,1475.62z"/>
			<path fill="#ADF2CA" d="M1008.76,1473.03l-1-0.06c-3.26-0.21-5.74-3.09-5.53-6.35s3.02-5.61,6.28-5.61h0.01l1,0.14
				c3.26,0.21,5.73,3.07,5.52,6.33S1012.02,1473.24,1008.76,1473.03z"/>
			<path fill="#ADF2CA" d="M967.84,1470.44l-1-0.06c-3.29-0.21-5.78-3.27-5.58-6.56c0.21-3.29,3.04-5.81,6.33-5.81h0.01l1,0.3
				c3.29,0.22,5.78,3.17,5.56,6.46S971.13,1470.65,967.84,1470.44z"/>
			<path fill="#ADF2CA" d="M925.81,1465.91l-0.95-0.3c-3.15-1-4.9-4.37-3.9-7.52c1-3.15,4.36-4.9,7.51-3.9l0.95,0.3
				c3.16,0.99,4.91,4.36,3.91,7.51c-0.99,3.16-4.36,4.91-7.51,3.91L925.81,1465.91z"/>
			<path fill="#ADF2CA" d="M886.73,1453.51l-0.95-0.3c-3.13-0.99-4.86-4.33-3.87-7.46c0.99-3.13,4.32-4.86,7.45-3.87l0.95,0.3
				c3.13,0.99,4.87,4.33,3.88,7.46s-4.33,4.87-7.46,3.88L886.73,1453.51z"/>
			<path fill="#ADF2CA" d="M847.65,1441.11l-0.95-0.3c-3.11-0.99-4.82-4.3-3.84-7.41c0.99-3.11,4.29-4.83,7.39-3.84l0.95,0.3
				c3.11,0.98,4.83,4.29,3.86,7.4s-4.29,4.83-7.4,3.85L847.65,1441.11z"/>
			<path fill="#ADF2CA" d="M808.57,1428.7l-0.95-0.3c-3.08-0.98-4.79-4.27-3.81-7.35c0.98-3.08,4.26-4.79,7.34-3.81l0.95,0.3
				c3.08,0.97,4.8,4.26,3.83,7.34c-0.97,3.08-4.26,4.8-7.34,3.83L808.57,1428.7z"/>
			<path fill="#ADF2CA" d="M769.5,1416.3l-0.95-0.3c-3.06-0.97-4.75-4.24-3.78-7.29c0.97-3.06,4.22-4.75,7.28-3.78l0.95,0.3
				c3.06,0.96,4.76,4.23,3.8,7.29c-0.96,3.06-4.23,4.76-7.29,3.8L769.5,1416.3z"/>
			<path fill="#ADF2CA" d="M730.42,1403.9l-0.95-0.3c-3.03-0.96-4.71-4.2-3.75-7.24s4.19-4.72,7.22-3.75l0.95,0.3
				c3.04,0.96,4.72,4.19,3.77,7.23c-0.96,3.04-4.19,4.72-7.23,3.77L730.42,1403.9z"/>
			<path fill="#ADF2CA" d="M691.35,1391.44l-0.95-0.3c-2.98-0.95-4.62-4.14-3.67-7.12c0.95-2.97,4.12-4.61,7.08-3.68l0.95,0.3
				c2.99,0.93,4.65,4.11,3.72,7.1c-0.93,2.99-4.11,4.65-7.1,3.72L691.35,1391.44z"/>
			<path fill="#ADF2CA" d="M652.3,1378.95l-0.95-0.3c-2.91-0.93-4.51-4.04-3.58-6.95c0.93-2.9,4.02-4.5,6.91-3.59l0.95,0.3
				c2.92,0.91,4.54,4.01,3.63,6.93s-4.01,4.54-6.93,3.63L652.3,1378.95z"/>
			<path fill="#ADF2CA" d="M613.59,1374l-1,0.17c-2.98-0.04-5.35-2.4-5.31-5.38c0.04-2.96,2.47-5.29,5.43-5.27l1,0.03
				c2.98,0.02,5.38,2.28,5.35,5.26c-0.02,2.98-2.46,5.18-5.43,5.18H613.59z"/>
			<path fill="#ADF2CA" d="M572.6,1374l-1-0.12c-2.9-0.04-5.22-2.48-5.18-5.38c0.04-2.89,2.41-5.23,5.29-5.21l1-0.01
				c2.9,0.02,5.24,2.49,5.22,5.4c-0.02,2.9-2.39,5.32-5.3,5.32H572.6z"/>
			<path fill="#ADF2CA" d="M531.6,1373l-1,0.08c-2.83-0.04-5.08-2.31-5.04-5.14c0.04-2.81,2.35-5.04,5.15-5.02l1,0.02
				c2.83,0.02,5.1,2.24,5.08,5.06s-2.33,4.99-5.16,4.99H531.6z"/>
			<path fill="#ADF2CA" d="M490.61,1373l-1-0.24c-2.72-0.04-4.89-2.4-4.84-5.11c0.04-2.7,2.26-4.91,4.95-4.9l1-0.02
				c2.72,0.01,4.92,2.44,4.9,5.16s-2.23,5.11-4.96,5.11C490.65,1373,490.61,1373,490.61,1373z"/>
			<path fill="#ADF2CA" d="M449.61,1372l-1-0.07c-2.59-0.04-4.66-2.21-4.62-4.8c0.04-2.58,2.15-4.65,4.72-4.63l1,0
				c2.6,0.01,4.69,2.18,4.68,4.78c-0.01,2.6-2.13,4.73-4.73,4.73C449.65,1372,449.62,1372,449.61,1372z"/>
			<path fill="#ADF2CA" d="M408.62,1371l-1,0.09c-2.47-0.04-4.44-2.02-4.39-4.49c0.04-2.45,2.05-4.38,4.49-4.37l1,0.02
				c2.47,0.01,4.46,1.93,4.45,4.4c-0.01,2.47-2.03,4.35-4.5,4.35C408.66,1371,408.62,1371,408.62,1371z"/>
			<path fill="#ADF2CA" d="M367.62,1371l-1-0.25c-2.34-0.04-4.21-2.08-4.17-4.43c0.04-2.33,1.94-4.24,4.26-4.23l1-0.02
				c2.35,0.01,4.24,2.14,4.22,4.49c-0.01,2.35-1.92,4.44-4.27,4.44C367.66,1371,367.63,1371,367.62,1371z"/>
			<path fill="#ADF2CA" d="M326.62,1370l-1-0.1c-2.2-0.04-3.95-1.9-3.91-4.1c0.04-2.18,1.82-3.93,3.99-3.93l1-0.01
				c2.2,0.01,3.98,1.88,3.97,4.08s-1.8,4.06-4,4.06C326.67,1370,326.64,1370,326.62,1370z"/>
			<path fill="#ADF2CA" d="M289.15,1350.26l-0.84-0.55c-1.69-1.11-2.17-3.38-1.06-5.07c1.1-1.68,3.34-2.16,5.03-1.09l0.85,0.54
				c1.71,1.09,2.22,3.35,1.14,5.07c-1.08,1.71-3.35,2.22-5.07,1.14C289.19,1350.29,289.16,1350.27,289.15,1350.26z"/>
			<path fill="#ADF2CA" d="M254.85,1327.79l-0.84-0.55c-1.55-1.01-1.98-3.09-0.97-4.64c1-1.53,3.05-1.97,4.59-0.99l0.84,0.54
				c1.57,0.99,2.03,3.07,1.04,4.63s-3.07,2.03-4.63,1.04C254.89,1327.82,254.86,1327.8,254.85,1327.79z"/>
			<path fill="#ADF2CA" d="M220.56,1305.32l-0.84-0.55c-1.4-0.92-1.79-2.8-0.88-4.2c0.91-1.39,2.76-1.78,4.16-0.9l0.85,0.54
				c1.42,0.9,1.84,2.78,0.94,4.2c-0.9,1.42-2.78,1.84-4.2,0.94C220.59,1305.34,220.57,1305.33,220.56,1305.32z"/>
			<path fill="#ADF2CA" d="M186.3,1282.79l-0.83-0.55c-1.22-0.8-1.56-2.44-0.75-3.66c0.79-1.2,2.4-1.55,3.62-0.78l0.85,0.53
				c1.24,0.78,1.61,2.42,0.83,3.66c-0.78,1.24-2.42,1.61-3.66,0.83C186.34,1282.81,186.31,1282.8,186.3,1282.79z"/>
			<path fill="#ADF2CA" d="M152.05,1260.25l-0.83-0.55c-1.03-0.68-1.32-2.07-0.64-3.1c0.67-1.02,2.04-1.31,3.07-0.66l0.85,0.53
				c1.05,0.66,1.37,2.05,0.7,3.1c-0.66,1.05-2.05,1.37-3.1,0.7C152.08,1260.27,152.06,1260.26,152.05,1260.25z"/>
			<path fill="#ADF2CA" d="M117.81,1237.7l-0.83-0.55c-0.84-0.56-1.07-1.69-0.52-2.53c0.55-0.83,1.66-1.06,2.49-0.54l0.85,0.53
				c0.86,0.54,1.12,1.67,0.58,2.53c-0.54,0.86-1.67,1.12-2.53,0.58C117.84,1237.72,117.82,1237.71,117.81,1237.7z"/>
			<path fill="#ADF2CA" d="M83.61,1215.09l-0.83-0.55c-0.62-0.41-0.79-1.24-0.38-1.85c0.4-0.61,1.21-0.78,1.83-0.4l0.85,0.53
				c0.63,0.4,0.82,1.23,0.43,1.86c-0.4,0.63-1.23,0.82-1.86,0.43C83.63,1215.1,83.61,1215.09,83.61,1215.09z"/>
			<path fill="#ADF2CA" d="M49.41,1192.46l-0.83-0.55c-0.38-0.26-0.49-0.77-0.23-1.16c0.25-0.38,0.75-0.48,1.14-0.25l0.85,0.53
				c0.4,0.25,0.52,0.77,0.27,1.17c-0.25,0.4-0.77,0.52-1.17,0.27C49.43,1192.47,49.42,1192.46,49.41,1192.46z"/>
			<path fill="#ADF2CA" d="M15.26,1169.76l-0.83-0.55c-0.11-0.08-0.15-0.23-0.07-0.34c0.07-0.11,0.22-0.14,0.34-0.07l0.85,0.53
				c0.12,0.08,0.16,0.24,0.08,0.36C15.55,1169.81,15.39,1169.84,15.26,1169.76C15.27,1169.77,15.26,1169.76,15.26,1169.76z"/>
		</g>
	</g>
	<g>
		<g>
			<path fill="#ADF2CA" d="M1920,1390.19l-0.88-0.47c-0.01,0-0.01-0.01-0.01-0.02c0-0.01,0.01-0.01,0.02-0.01v0L1920,1390.19z"/>
			<path fill="#ADF2CA" d="M1883.73,1371.06l-0.88-0.47c-0.29-0.16-0.41-0.52-0.25-0.81s0.52-0.41,0.81-0.25
				c0,0,0.01,0.01,0.01,0.01l0.87,0.49c0.28,0.16,0.38,0.52,0.22,0.8C1884.36,1371.1,1884.01,1371.21,1883.73,1371.06z"/>
			<path fill="#ADF2CA" d="M1847.49,1351.89l-0.88-0.47c-0.56-0.3-0.77-0.99-0.47-1.55s0.99-0.77,1.55-0.48
				c0.01,0,0.02,0.01,0.02,0.01l0.87,0.49c0.55,0.31,0.74,1,0.43,1.55C1848.71,1351.98,1848.03,1352.18,1847.49,1351.89z"/>
			<path fill="#ADF2CA" d="M1811.27,1332.67l-0.88-0.47c-0.8-0.42-1.1-1.41-0.68-2.21c0.42-0.8,1.41-1.1,2.21-0.68
				c0.01,0,0.03,0.01,0.03,0.02l0.87,0.49c0.78,0.44,1.06,1.43,0.62,2.21C1813.01,1332.8,1812.04,1333.08,1811.27,1332.67z"/>
			<path fill="#ADF2CA" d="M1775.07,1313.41l-0.88-0.47c-1.01-0.54-1.4-1.8-0.86-2.82c0.54-1.01,1.8-1.4,2.82-0.86
				c0.01,0,0.03,0.01,0.04,0.02l0.87,0.49c1,0.56,1.36,1.82,0.8,2.82C1777.3,1313.58,1776.06,1313.94,1775.07,1313.41z"/>
			<path fill="#ADF2CA" d="M1738.89,1294.12l-0.88-0.47c-1.21-0.65-1.67-2.15-1.02-3.36c0.65-1.21,2.15-1.67,3.36-1.02
				c0.01,0.01,0.03,0.02,0.04,0.02l0.87,0.49c1.19,0.67,1.62,2.18,0.95,3.37C1741.56,1294.32,1740.08,1294.75,1738.89,1294.12z"/>
			<path fill="#ADF2CA" d="M1702.71,1274.82l-0.88-0.47c-1.41-0.75-1.94-2.5-1.19-3.91c0.75-1.41,2.5-1.94,3.91-1.19
				c0.01,0.01,0.04,0.02,0.05,0.03l0.87,0.49c1.39,0.78,1.88,2.53,1.11,3.92C1705.81,1275.05,1704.09,1275.55,1702.71,1274.82z"/>
			<path fill="#ADF2CA" d="M1666.56,1255.47l-0.88-0.47c-1.57-0.84-2.16-2.8-1.32-4.37c0.84-1.57,2.8-2.16,4.37-1.32
				c0.01,0,0.03,0.02,0.04,0.02l0.87,0.49c1.55,0.86,2.11,2.83,1.25,4.38C1670.04,1255.74,1668.11,1256.3,1666.56,1255.47z"/>
			<path fill="#ADF2CA" d="M1630.43,1236.1l-0.88-0.47c-1.72-0.92-2.37-3.07-1.45-4.8c0.93-1.73,3.07-2.37,4.8-1.45
				c0.01,0.01,0.04,0.02,0.05,0.03l0.87,0.49c1.71,0.95,2.32,3.1,1.37,4.81C1634.25,1236.39,1632.13,1237.01,1630.43,1236.1z"/>
			<path fill="#ADF2CA" d="M1594.88,1218.28l-0.98-0.21c-2.09-0.44-3.42-2.49-2.98-4.57c0.44-2.09,2.49-3.42,4.57-2.98
				c0.01,0,0.05,0.01,0.06,0.01l0.97,0.22c2.08,0.47,3.38,2.53,2.91,4.61C1598.96,1217.41,1596.93,1218.71,1594.88,1218.28z"/>
			<path fill="#ADF2CA" d="M1554.76,1209.82l-0.98-0.21c-2.25-0.48-3.68-2.68-3.2-4.93c0.48-2.24,2.68-3.68,4.93-3.2
				c0.01,0,0.04,0.01,0.04,0.01l0.98,0.22c2.24,0.5,3.64,2.72,3.14,4.96C1559.17,1208.89,1556.98,1210.29,1554.76,1209.82z"/>
			<path fill="#ADF2CA" d="M1514.66,1201.29l-0.98-0.21c-2.37-0.5-3.88-2.83-3.38-5.2c0.5-2.37,2.83-3.88,5.2-3.38
				c0.01,0,0.04,0.01,0.05,0.01l0.98,0.22c2.36,0.53,3.84,2.87,3.31,5.23C1519.31,1200.31,1517,1201.79,1514.66,1201.29z"/>
			<path fill="#ADF2CA" d="M1474.55,1192.76l-0.98-0.21c-2.49-0.53-4.08-2.98-3.55-5.47c0.53-2.49,2.98-4.08,5.47-3.55
				c0.01,0,0.04,0.01,0.05,0.01l0.97,0.22c2.48,0.56,4.04,3.02,3.49,5.5C1479.45,1191.73,1477.02,1193.29,1474.55,1192.76z"/>
			<path fill="#ADF2CA" d="M1434.45,1184.24l-0.98-0.21c-2.61-0.56-4.28-3.12-3.73-5.74c0.56-2.61,3.12-4.28,5.74-3.73
				c0.01,0,0.04,0.01,0.05,0.01l0.98,0.22c2.6,0.58,4.24,3.17,3.66,5.77C1439.59,1183.15,1437.03,1184.79,1434.45,1184.24z"/>
			<path fill="#ADF2CA" d="M1394.34,1175.71l-0.98-0.21c-2.74-0.58-4.48-3.28-3.89-6.01c0.58-2.74,3.28-4.48,6.01-3.89l0.04,0.01
				l0.98,0.22c2.73,0.61,4.45,3.31,3.84,6.04C1399.74,1174.58,1397.06,1176.29,1394.34,1175.71z"/>
			<path fill="#ADF2CA" d="M1354.26,1167.1l-0.98-0.21c-2.81-0.6-4.6-3.37-3.99-6.18c0.6-2.81,3.37-4.6,6.18-3.99l0.03,0.01
				l0.98,0.22c2.8,0.62,4.57,3.4,3.95,6.2C1359.81,1165.93,1357.05,1167.69,1354.26,1167.1z"/>
			<path fill="#ADF2CA" d="M1314.17,1158.48l-0.98-0.21c-2.88-0.62-4.72-3.46-4.1-6.34s3.46-4.72,6.34-4.1l0.04,0.01l0.98,0.22
				c2.88,0.64,4.69,3.49,4.05,6.37C1319.87,1157.28,1317.04,1159.1,1314.17,1158.48z"/>
			<path fill="#ADF2CA" d="M1276.43,1151.94l-0.98,0.22c-2.95,0.66-5.88-1.21-6.53-4.16c-0.66-2.95,1.21-5.88,4.16-6.53l0.04-0.01
				l0.98-0.21c2.96-0.64,5.87,1.25,6.5,4.2C1281.22,1148.39,1279.36,1151.28,1276.43,1151.94z"/>
			<path fill="#ADF2CA" d="M1236.4,1160.82l-0.98,0.22c-3.03,0.67-6.03-1.24-6.7-4.27s1.24-6.03,4.27-6.7l0.04-0.01l0.98-0.21
				c3.03-0.65,6.01,1.28,6.67,4.31C1241.32,1157.18,1239.41,1160.15,1236.4,1160.82z"/>
			<path fill="#ADF2CA" d="M1196.37,1169.69l-0.98,0.21c-3.1,0.68-6.16-1.28-6.84-4.38c-0.68-3.1,1.28-6.16,4.38-6.84l0.01,0
				l0.98-0.21c3.1-0.67,6.16,1.29,6.83,4.39C1201.43,1165.96,1199.47,1169.02,1196.37,1169.69z"/>
			<path fill="#ADF2CA" d="M1156.32,1178.48l-0.98,0.21c-3.12,0.69-6.21-1.29-6.9-4.41s1.29-6.21,4.42-6.9l0.01,0l0.98-0.21
				c3.12-0.68,6.21,1.3,6.89,4.43C1161.42,1174.73,1159.45,1177.81,1156.32,1178.48z"/>
			<path fill="#ADF2CA" d="M1116.28,1187.28l-0.98,0.21c-3.15,0.69-6.26-1.3-6.95-4.45c-0.69-3.15,1.3-6.26,4.45-6.95l0.01,0
				l0.98-0.21c3.15-0.68,6.26,1.31,6.94,4.46C1121.41,1183.49,1119.43,1186.59,1116.28,1187.28z"/>
			<path fill="#ADF2CA" d="M1076.23,1196.07l-0.98,0.21c-3.17,0.7-6.31-1.31-7.01-4.48c-0.7-3.17,1.31-6.31,4.48-7.01l0.01,0
				l0.98-0.21c3.17-0.69,6.31,1.32,7,4.5C1081.41,1192.25,1079.41,1195.38,1076.23,1196.07z"/>
			<path fill="#ADF2CA" d="M1036.18,1204.86l-0.98,0.21c-3.2,0.7-6.36-1.32-7.06-4.52c-0.7-3.2,1.32-6.36,4.52-7.06l0.01,0
				l0.98-0.21c3.2-0.69,6.36,1.33,7.05,4.53C1041.4,1201.01,1039.38,1204.16,1036.18,1204.86z"/>
			<path fill="#ADF2CA" d="M996.14,1213.65l-0.98,0.21c-3.22,0.71-6.41-1.33-7.12-4.55c-0.71-3.22,1.33-6.41,4.55-7.12l0.01,0
				l0.98-0.21c3.22-0.7,6.4,1.35,7.1,4.57S999.36,1212.95,996.14,1213.65z"/>
			<path fill="#ADF2CA" d="M954.07,1220.8l-0.99-0.11c-3.28-0.36-5.65-3.32-5.29-6.6s3.3-5.65,6.59-5.29l0.99,0.11
				c3.28,0.35,5.66,3.3,5.31,6.59s-3.3,5.66-6.59,5.31L954.07,1220.8z"/>
			<path fill="#ADF2CA" d="M913.32,1216.31l-0.99-0.11c-3.26-0.36-5.61-3.29-5.25-6.55c0.36-3.26,3.28-5.61,6.54-5.25l0.99,0.11
				c3.26,0.35,5.62,3.28,5.26,6.54s-3.28,5.62-6.54,5.26L913.32,1216.31z"/>
			<path fill="#ADF2CA" d="M872.56,1211.82l-0.99-0.11c-3.23-0.36-5.56-3.27-5.21-6.5c0.36-3.23,3.25-5.57,6.48-5.21l0.99,0.11
				c3.23,0.35,5.57,3.25,5.22,6.49c-0.35,3.23-3.25,5.57-6.49,5.22L872.56,1211.82z"/>
			<path fill="#ADF2CA" d="M831.81,1207.33l-0.99-0.11c-3.21-0.35-5.52-3.24-5.17-6.45c0.35-3.21,3.23-5.52,6.43-5.17l0.99,0.11
				c3.21,0.35,5.53,3.23,5.18,6.44c-0.35,3.21-3.23,5.53-6.44,5.18L831.81,1207.33z"/>
			<path fill="#ADF2CA" d="M791.05,1202.85l-0.99-0.11c-3.18-0.35-5.48-3.21-5.13-6.4s3.2-5.48,6.38-5.13l0.99,0.11
				c3.18,0.34,5.49,3.2,5.14,6.39s-3.2,5.49-6.39,5.14L791.05,1202.85z"/>
			<path fill="#ADF2CA" d="M750.3,1198.36l-0.99-0.11c-3.16-0.35-5.43-3.19-5.09-6.35c0.35-3.16,3.18-5.44,6.33-5.09l0.99,0.11
				c3.16,0.34,5.44,3.18,5.1,6.34c-0.34,3.16-3.18,5.44-6.33,5.1L750.3,1198.36z"/>
			<path fill="#ADF2CA" d="M709.55,1193.8l-0.99-0.11c-3.09-0.35-5.31-3.13-4.96-6.22c0.35-3.08,3.11-5.29,6.19-4.97l0.99,0.1
				c3.09,0.33,5.34,3.1,5.01,6.19c-0.33,3.09-3.1,5.34-6.19,5.01L709.55,1193.8z"/>
			<path fill="#ADF2CA" d="M668.81,1189.22l-0.99-0.11c-3.01-0.34-5.18-3.06-4.84-6.07c0.34-3,3.04-5.16,6.03-4.85l1,0.1
				c3.02,0.32,5.21,3.02,4.89,6.04c-0.32,3.02-3.02,5.21-6.04,4.89L668.81,1189.22z"/>
			<path fill="#ADF2CA" d="M627.39,1180.89l-0.91-0.4c-2.71-1.19-3.93-4.35-2.74-7.06c1.19-2.69,4.33-3.92,7.02-2.75l0.92,0.4
				c2.72,1.17,3.96,4.33,2.79,7.04c-1.17,2.71-4.33,3.96-7.04,2.79L627.39,1180.89z"/>
			<path fill="#ADF2CA" d="M589.87,1164.36l-0.92-0.4c-2.64-1.16-3.83-4.24-2.67-6.87c1.16-2.62,4.21-3.82,6.84-2.68l0.92,0.4
				c2.65,1.14,3.86,4.22,2.72,6.86s-4.22,3.86-6.86,2.72L589.87,1164.36z"/>
			<path fill="#ADF2CA" d="M552.35,1147.83l-0.92-0.4c-2.57-1.13-3.73-4.13-2.6-6.69c1.13-2.55,4.1-3.72,6.66-2.61l0.92,0.4
				c2.58,1.11,3.76,4.1,2.65,6.68s-4.1,3.76-6.68,2.65L552.35,1147.83z"/>
			<path fill="#ADF2CA" d="M514.86,1131.23l-0.91-0.41c-2.45-1.09-3.56-3.96-2.47-6.41c1.08-2.43,3.92-3.54,6.36-2.49l0.92,0.4
				c2.47,1.06,3.61,3.92,2.55,6.39c-1.06,2.47-3.92,3.61-6.39,2.55C514.9,1131.25,514.87,1131.23,514.86,1131.23z"/>
			<path fill="#ADF2CA" d="M477.38,1114.61l-0.91-0.4c-2.34-1.04-3.39-3.77-2.36-6.1c1.03-2.32,3.73-3.37,6.06-2.38l0.92,0.4
				c2.35,1.01,3.44,3.73,2.43,6.08c-1.01,2.35-3.74,3.44-6.09,2.43C477.42,1114.63,477.39,1114.62,477.38,1114.61z"/>
			<path fill="#ADF2CA" d="M439.89,1098l-0.91-0.41c-2.22-0.98-3.22-3.58-2.24-5.8c0.98-2.2,3.55-3.21,5.76-2.26l0.92,0.4
				c2.23,0.96,3.27,3.55,2.31,5.78c-0.96,2.23-3.55,3.27-5.78,2.31C439.93,1098.02,439.9,1098,439.89,1098z"/>
			<path fill="#ADF2CA" d="M402.41,1081.39l-0.92-0.4c-2.1-0.93-3.05-3.4-2.12-5.5c0.93-2.09,3.36-3.04,5.46-2.14l0.92,0.4
				c2.12,0.91,3.1,3.37,2.19,5.48c-0.91,2.12-3.37,3.1-5.48,2.19C402.45,1081.4,402.42,1081.39,402.41,1081.39z"/>
			<path fill="#ADF2CA" d="M364.95,1064.72l-0.91-0.41c-1.96-0.87-2.83-3.16-1.96-5.12c0.86-1.94,3.12-2.81,5.06-1.99l0.92,0.39
				c1.97,0.84,2.89,3.13,2.05,5.1c-0.84,1.97-3.13,2.89-5.1,2.05C364.99,1064.74,364.96,1064.72,364.95,1064.72z"/>
			<path fill="#ADF2CA" d="M327.5,1048.02l-0.91-0.41c-1.79-0.8-2.6-2.9-1.8-4.7c0.79-1.78,2.86-2.58,4.65-1.82l0.92,0.39
				c1.81,0.77,2.65,2.87,1.88,4.68c-0.77,1.81-2.87,2.65-4.68,1.88C327.54,1048.04,327.51,1048.03,327.5,1048.02z"/>
			<path fill="#ADF2CA" d="M288.74,1044l-1,0.04c-1.79-0.01-3.23-1.25-3.21-3.04c0.01-1.77,1.45-3,3.21-3h1
				c1.79,0,3.26,1.18,3.27,2.97c0.01,1.79-1.43,3.03-3.22,3.03C288.78,1044,288.75,1044,288.74,1044z"/>
			<path fill="#ADF2CA" d="M247.74,1044l-1-0.13c-1.6-0.02-2.89-1.39-2.87-2.99c0.02-1.58,1.3-2.88,2.87-2.9l1-0.02
				c1.61-0.02,2.92,1.38,2.94,2.99s-1.27,3.05-2.88,3.05C247.79,1044,247.76,1044,247.74,1044z"/>
			<path fill="#ADF2CA" d="M206.74,1043l-1,0.17c-1.38-0.01-2.48-1.05-2.47-2.43c0.01-1.36,1.12-2.41,2.47-2.43l1,0.01
				c1.38-0.01,2.52,0.93,2.53,2.31c0.01,1.38-1.1,2.36-2.48,2.36C206.78,1043,206.76,1043,206.74,1043z"/>
			<path fill="#ADF2CA" d="M165.74,1043l-1-0.03c-1.15-0.01-2.08-0.97-2.07-2.12c0.01-1.14,0.94-2.06,2.07-2.08l1-0.01
				c1.16-0.01,2.11,0.94,2.12,2.1c0.01,1.16-0.92,2.14-2.08,2.14C165.77,1043,165.75,1043,165.74,1043z"/>
			<path fill="#ADF2CA" d="M124.74,1043l-1-0.26c-0.91-0.01-1.63-0.88-1.62-1.78c0.01-0.89,0.73-1.67,1.62-1.68l1-0.04
				c0.91-0.01,1.66,0.95,1.67,1.86c0.01,0.91-0.72,0.9-1.63,1.9C124.77,1043,124.75,1043,124.74,1043z"/>
			<path fill="#ADF2CA" d="M83.74,1042l-1,0c-0.63-0.01-1.14-0.52-1.14-1.16c0.01-0.62,0.51-1.13,1.14-1.13l1-0.01
				c0.64-0.01,1.17,0.5,1.18,1.14c0.01,0.64-0.51,1.17-1.15,1.17C83.76,1042,83.75,1042,83.74,1042z"/>
			<path fill="#ADF2CA" d="M42.74,1041l-1,0.22c-0.33,0-0.6-0.16-0.59-0.49c0-0.33,0.27-0.53,0.59-0.53l1,0.01
				c0.34,0,0.62,0.05,0.63,0.39c0,0.34-0.27,0.4-0.61,0.4C42.76,1041,42.75,1041,42.74,1041z"/>
			<path fill="#ADF2CA" d="M1.74,1040.88l-1-0.01c-0.01,0-0.01,0-0.01-0.01s0-0.01,0.01-0.01l1-0.01c0.01,0,0.03,0.01,0.03,0.02
				C1.77,1040.87,1.76,1040.88,1.74,1040.88L1.74,1040.88z"/>
		</g>
	</g>
	<g>
		<g>
			<path fill="#ADF2CA" d="M1920,1215.52l-0.91,0.41c-0.01,0-0.02,0-0.02-0.01c0-0.01,0-0.02,0.01-0.02l0,0L1920,1215.52z"/>
			<path fill="#ADF2CA" d="M1882.65,1232.45l-0.91,0.41c-0.29,0.13-0.64,0-0.77-0.29s0-0.64,0.29-0.77c0,0,0.01,0,0.01-0.01
				l0.92-0.39c0.29-0.12,0.62,0.01,0.75,0.3C1883.06,1232,1882.93,1232.33,1882.65,1232.45z"/>
			<path fill="#ADF2CA" d="M1845.3,1249.35l-0.91,0.41c-0.56,0.25-1.22,0-1.47-0.56c-0.25-0.56,0-1.22,0.56-1.47
				c0.01,0,0.02-0.01,0.02-0.01l0.92-0.39c0.56-0.24,1.21,0.02,1.44,0.59C1846.09,1248.47,1845.84,1249.11,1845.3,1249.35z"/>
			<path fill="#ADF2CA" d="M1807.91,1266.2l-0.91,0.41c-0.8,0.36-1.74,0-2.1-0.79c-0.36-0.8,0-1.74,0.79-2.1
				c0.01,0,0.03-0.01,0.03-0.01l0.92-0.39c0.8-0.34,1.72,0.04,2.06,0.84C1809.05,1264.94,1808.69,1265.85,1807.91,1266.2z"/>
			<path fill="#ADF2CA" d="M1770.52,1283.02l-0.91,0.41c-1.02,0.46-2.22,0-2.68-1.02c-0.46-1.02,0-2.22,1.02-2.68
				c0.01,0,0.03-0.01,0.04-0.02l0.92-0.39c1.03-0.44,2.21,0.04,2.65,1.07C1771.98,1281.4,1771.52,1282.57,1770.52,1283.02z"/>
			<path fill="#ADF2CA" d="M1733.1,1299.78l-0.91,0.41c-1.22,0.55-2.65,0-3.2-1.22c-0.55-1.22,0-2.65,1.22-3.2
				c0.01,0,0.03-0.01,0.04-0.02l0.92-0.39c1.22-0.52,2.64,0.05,3.16,1.27C1734.85,1297.85,1734.29,1299.25,1733.1,1299.78z"/>
			<path fill="#ADF2CA" d="M1695.68,1316.55l-0.91,0.41c-1.42,0.63-3.08,0-3.71-1.41c-0.63-1.42,0-3.08,1.41-3.71
				c0.01-0.01,0.04-0.02,0.05-0.02l0.92-0.39c1.42-0.6,3.07,0.06,3.67,1.48C1697.71,1314.3,1697.07,1315.93,1695.68,1316.55z"/>
			<path fill="#ADF2CA" d="M1658.25,1333.28l-0.91,0.41c-1.59,0.71-3.46-0.01-4.17-1.6s0.01-3.46,1.6-4.17
				c0.01,0,0.03-0.02,0.04-0.02l0.92-0.39c1.6-0.68,3.45,0.06,4.13,1.66C1660.54,1330.75,1659.82,1332.58,1658.25,1333.28z"/>
			<path fill="#ADF2CA" d="M1620.8,1349.97l-0.91,0.41c-1.74,0.78-3.79-0.01-4.57-1.75c-0.78-1.75,0.01-3.79,1.75-4.57
				c0.01,0,0.04-0.02,0.05-0.02l0.92-0.39c1.75-0.75,3.78,0.06,4.53,1.82C1623.31,1347.19,1622.52,1349.2,1620.8,1349.97z"/>
			<path fill="#ADF2CA" d="M1579.88,1356.66l-0.99-0.11c-2.07-0.23-3.55-2.1-3.32-4.16c0.23-2.07,2.1-3.55,4.16-3.32
				c0.01,0,0.04,0.01,0.06,0.01l0.99,0.13c2.06,0.26,3.52,2.15,3.25,4.2C1583.77,1355.44,1581.92,1356.88,1579.88,1356.66z"/>
			<path fill="#ADF2CA" d="M1539.14,1352.07l-0.99-0.11c-2.23-0.25-3.84-2.27-3.59-4.5s2.27-3.84,4.5-3.59
				c0.01,0,0.05,0.01,0.06,0.01l0.99,0.13c2.23,0.28,3.8,2.32,3.52,4.55C1543.34,1350.75,1541.34,1352.32,1539.14,1352.07z"/>
			<path fill="#ADF2CA" d="M1498.4,1347.41l-0.99-0.11c-2.36-0.27-4.05-2.4-3.78-4.76c0.27-2.36,2.4-4.05,4.76-3.78l0.05,0.01
				l0.99,0.12c2.35,0.3,4.02,2.44,3.73,4.8C1502.86,1346.02,1500.74,1347.68,1498.4,1347.41z"/>
			<path fill="#ADF2CA" d="M1457.67,1342.74l-0.99-0.11c-2.48-0.28-4.26-2.53-3.98-5.01c0.29-2.48,2.53-4.26,5.01-3.98l0.05,0.01
				l0.99,0.12c2.47,0.31,4.23,2.57,3.92,5.04C1462.36,1341.27,1460.12,1343.02,1457.67,1342.74z"/>
			<path fill="#ADF2CA" d="M1416.94,1338.07l-0.99-0.11c-2.6-0.3-4.47-2.65-4.17-5.25c0.3-2.6,2.65-4.47,5.25-4.17l0.05,0.01
				l0.99,0.12c2.59,0.33,4.43,2.69,4.11,5.29C1421.85,1336.53,1419.51,1338.36,1416.94,1338.07z"/>
			<path fill="#ADF2CA" d="M1376.2,1333.4l-0.99-0.11c-2.72-0.31-4.68-2.77-4.36-5.49c0.31-2.72,2.77-4.67,5.49-4.36l0.05,0.01
				l0.99,0.12c2.71,0.34,4.64,2.82,4.3,5.53C1381.35,1331.79,1378.9,1333.71,1376.2,1333.4z"/>
			<path fill="#ADF2CA" d="M1335.48,1328.68l-0.99-0.12c-2.82-0.33-4.83-2.88-4.5-5.69c0.33-2.82,2.88-4.83,5.7-4.5l0.03,0
				l0.99,0.12c2.81,0.35,4.81,2.91,4.46,5.72C1340.82,1327.02,1338.27,1329.01,1335.48,1328.68z"/>
			<path fill="#ADF2CA" d="M1294.75,1323.92l-0.99-0.12c-2.89-0.34-4.96-2.95-4.62-5.84s2.95-4.96,5.84-4.62l0.04,0l0.99,0.12
				c2.88,0.36,4.94,2.98,4.58,5.87C1300.23,1322.21,1297.62,1324.26,1294.75,1323.92z"/>
			<path fill="#ADF2CA" d="M1255.32,1325.25l-0.99,0.12c-2.96,0.37-5.66-1.74-6.02-4.7c-0.37-2.96,1.74-5.66,4.7-6.02l0.03,0
				l0.99-0.12c2.96-0.35,5.64,1.77,5.99,4.73C1260.36,1322.22,1258.26,1324.89,1255.32,1325.25z"/>
			<path fill="#ADF2CA" d="M1214.62,1330.27l-0.99,0.12c-3.03,0.37-5.79-1.78-6.17-4.81c-0.37-3.03,1.78-5.79,4.81-6.17l0.04,0
				l0.99-0.12c3.03-0.35,5.78,1.82,6.13,4.85C1219.79,1327.16,1217.64,1329.9,1214.62,1330.27z"/>
			<path fill="#ADF2CA" d="M1173.93,1335.29l-0.99,0.12c-3.11,0.38-5.93-1.82-6.32-4.93s1.82-5.93,4.93-6.32l0.04,0l0.99-0.12
				c3.11-0.36,5.92,1.86,6.28,4.97C1179.22,1332.11,1177.02,1334.91,1173.93,1335.29z"/>
			<path fill="#ADF2CA" d="M1133.24,1340.28l-0.99,0.12c-3.16,0.38-6.03-1.87-6.41-5.03s1.87-6.03,5.03-6.41l0.01,0l0.99-0.12
				c3.16-0.38,6.02,1.88,6.4,5.04S1136.4,1339.9,1133.24,1340.28z"/>
			<path fill="#ADF2CA" d="M1092.54,1345.21l-0.99,0.12c-3.18,0.39-6.08-1.88-6.46-5.06c-0.39-3.18,1.88-6.08,5.06-6.46l0.01,0
				l0.99-0.12c3.18-0.38,6.07,1.89,6.45,5.08S1095.72,1344.83,1092.54,1345.21z"/>
			<path fill="#ADF2CA" d="M1051.83,1350.15l-0.99,0.12c-3.21,0.39-6.12-1.9-6.51-5.1s1.9-6.12,5.1-6.51l0.01,0l0.99-0.12
				c3.21-0.38,6.12,1.91,6.5,5.12S1055.04,1349.77,1051.83,1350.15z"/>
			<path fill="#ADF2CA" d="M1011.13,1355.08l-0.99,0.12c-3.23,0.39-6.17-1.91-6.56-5.14c-0.39-3.23,1.91-6.17,5.14-6.56l0.01,0
				l0.99-0.12c3.23-0.38,6.16,1.92,6.55,5.15S1014.36,1354.7,1011.13,1355.08z"/>
			<path fill="#ADF2CA" d="M970.43,1360.01l-0.99,0.12c-3.26,0.39-6.21-1.92-6.61-5.18s1.92-6.21,5.18-6.61l0.01,0l0.99-0.12
				c3.25-0.39,6.21,1.94,6.6,5.19C976,1356.67,973.68,1359.63,970.43,1360.01z"/>
			<path fill="#ADF2CA" d="M937.17,1377.39l-0.84,0.55c-2.76,1.81-6.47,1.04-8.28-1.72c-1.81-2.76-1.04-6.47,1.72-8.28l0.01-0.01
				l0.84-0.55c2.76-1.81,6.47-1.03,8.28,1.73C940.7,1371.89,939.94,1375.59,937.17,1377.39z"/>
			<path fill="#ADF2CA" d="M902.87,1399.86l-0.84,0.55c-2.76,1.81-6.46,1.03-8.27-1.73c-1.8-2.76-1.04-6.46,1.72-8.26l0.84-0.55
				c2.76-1.81,6.46-1.04,8.27,1.71s1.04,6.46-1.71,8.27L902.87,1399.86z"/>
			<path fill="#ADF2CA" d="M868.55,1422.29l-0.84,0.55c-2.74,1.79-6.42,1.02-8.21-1.72s-1.03-6.41,1.71-8.2l0.84-0.55
				c2.74-1.8,6.42-1.04,8.21,1.7s1.04,6.42-1.7,8.21L868.55,1422.29z"/>
			<path fill="#ADF2CA" d="M834.23,1444.72l-0.84,0.55c-2.72,1.78-6.37,1.01-8.15-1.71c-1.78-2.72-1.02-6.36,1.7-8.14l0.84-0.55
				c2.72-1.78,6.37-1.03,8.15,1.69c1.78,2.72,1.03,6.37-1.69,8.15L834.23,1444.72z"/>
			<path fill="#ADF2CA" d="M799.91,1467.15l-0.84,0.55c-2.7,1.76-6.32,1.01-8.08-1.69s-1.02-6.31,1.68-8.08l0.83-0.55
				c2.7-1.77,6.32-1.02,8.09,1.68C803.37,1461.75,802.62,1465.37,799.91,1467.15L799.91,1467.15z"/>
			<path fill="#ADF2CA" d="M765.59,1489.58l-0.84,0.55c-2.68,1.75-6.27,1-8.02-1.68c-1.75-2.68-1.01-6.26,1.67-8.02l0.84-0.55
				c2.68-1.76,6.27-1.01,8.03,1.66c1.76,2.68,1.01,6.27-1.66,8.03L765.59,1489.58z"/>
			<path fill="#ADF2CA" d="M731.27,1512.01l-0.84,0.55c-2.66,1.74-6.22,0.99-7.96-1.67c-1.74-2.66-1-6.22,1.66-7.96l0.84-0.55
				c2.66-1.74,6.22-1,7.97,1.65s1,6.22-1.65,7.97L731.27,1512.01z"/>
			<path fill="#ADF2CA" d="M696.92,1534.39l-0.84,0.55c-2.61,1.7-6.1,0.96-7.8-1.65c-1.69-2.6-0.96-6.07,1.62-7.78l0.83-0.55
				c2.6-1.72,6.1-1,7.81,1.6c1.72,2.6,1,6.1-1.6,7.81L696.92,1534.39z"/>
			<path fill="#ADF2CA" d="M662.55,1556.74l-0.84,0.54c-2.55,1.66-5.96,0.94-7.62-1.61c-1.65-2.54-0.94-5.93,1.58-7.59l0.83-0.55
				c2.54-1.68,5.96-0.98,7.63,1.56s0.97,5.95-1.56,7.63L662.55,1556.74z"/>
			<path fill="#ADF2CA" d="M623.45,1573.09l-0.99,0.16c-2.93,0.47-5.68-1.52-6.15-4.45c-0.47-2.92,1.51-5.66,4.42-6.15l0.99-0.17
				c2.93-0.49,5.7,1.49,6.19,4.41s-1.49,5.7-4.41,6.19L623.45,1573.09z"/>
			<path fill="#ADF2CA" d="M582.97,1579.58l-0.99,0.16c-2.85,0.46-5.54-1.49-6-4.34c-0.46-2.84,1.47-5.52,4.31-5.99l0.99-0.16
				c2.85-0.48,5.55,1.45,6.03,4.3s-1.45,5.55-4.3,6.03L582.97,1579.58z"/>
			<path fill="#ADF2CA" d="M542.48,1586.08l-0.99,0.16c-2.78,0.45-5.4-1.45-5.85-4.23c-0.44-2.77,1.43-5.38,4.2-5.84l0.99-0.17
				c2.78-0.46,5.41,1.41,5.88,4.19c0.46,2.78-1.41,5.41-4.19,5.88L542.48,1586.08z"/>
			<path fill="#ADF2CA" d="M501.99,1592.51l-0.99,0.16c-2.68,0.42-5.19-1.4-5.61-4.08c-0.42-2.66,1.38-5.16,4.03-5.6l0.99-0.17
				c2.67-0.45,5.21,1.35,5.66,4.02c0.45,2.67-1.35,5.21-4.02,5.66L501.99,1592.51z"/>
			<path fill="#ADF2CA" d="M461.5,1598.92l-0.99,0.16c-2.56,0.4-4.96-1.34-5.36-3.9c-0.4-2.54,1.32-4.92,3.84-5.35l0.99-0.17
				c2.55-0.43,4.98,1.29,5.41,3.84c0.43,2.55-1.29,4.98-3.84,5.41L461.5,1598.92z"/>
			<path fill="#ADF2CA" d="M421,1605.33l-0.99,0.16c-2.44,0.39-4.72-1.28-5.11-3.71c-0.38-2.42,1.26-4.69,3.66-5.1l0.99-0.17
				c2.43-0.41,4.74,1.23,5.15,3.66s-1.23,4.74-3.66,5.15L421,1605.33z"/>
			<path fill="#ADF2CA" d="M380.5,1611.74l-0.99,0.16c-2.31,0.37-4.49-1.21-4.85-3.53c-0.36-2.3,1.19-4.46,3.48-4.85l0.99-0.17
				c2.31-0.39,4.51,1.17,4.9,3.48s-1.17,4.51-3.48,4.9L380.5,1611.74z"/>
			<path fill="#ADF2CA" d="M340,1618.12l-0.99,0.15c-2.18,0.34-4.22-1.15-4.56-3.33c-0.34-2.16,1.12-4.18,3.27-4.55l0.99-0.17
				c2.18-0.37,4.24,1.09,4.61,3.26c0.37,2.18-1.09,4.24-3.26,4.61C340.05,1618.11,340.01,1618.12,340,1618.12z"/>
			<path fill="#ADF2CA" d="M303.91,1631.9l-0.85,0.53c-1.73,1.07-4,0.55-5.07-1.18c-1.06-1.71-0.55-3.95,1.13-5.04l0.84-0.54
				c1.71-1.1,4-0.61,5.1,1.1c1.1,1.71,0.61,4-1.11,5.1C303.94,1631.88,303.92,1631.9,303.91,1631.9z"/>
			<path fill="#ADF2CA" d="M269.1,1653.58l-0.85,0.53c-1.58,0.98-3.66,0.5-4.65-1.08c-0.98-1.57-0.51-3.62,1.04-4.62l0.84-0.54
				c1.57-1.01,3.66-0.56,4.67,1.01c1.01,1.57,0.56,3.66-1.01,4.67C269.14,1653.56,269.11,1653.57,269.1,1653.58z"/>
			<path fill="#ADF2CA" d="M234.3,1675.26l-0.85,0.53c-1.44,0.9-3.33,0.46-4.22-0.98c-0.89-1.42-0.46-3.29,0.94-4.2l0.84-0.54
				c1.43-0.92,3.33-0.51,4.25,0.92s0.51,3.33-0.92,4.25C234.33,1675.24,234.31,1675.25,234.3,1675.26z"/>
			<path fill="#ADF2CA" d="M199.46,1696.88l-0.85,0.53c-1.26,0.78-2.92,0.39-3.71-0.87c-0.77-1.25-0.4-2.88,0.83-3.68l0.84-0.54
				c1.25-0.81,2.93-0.45,3.74,0.8s0.45,2.93-0.8,3.74C199.5,1696.86,199.47,1696.87,199.46,1696.88z"/>
			<path fill="#ADF2CA" d="M164.62,1718.48l-0.85,0.53c-1.08,0.67-2.5,0.34-3.17-0.74c-0.66-1.07-0.34-2.46,0.71-3.14l0.84-0.54
				c1.07-0.69,2.5-0.39,3.2,0.69c0.69,1.07,0.39,2.5-0.69,3.19C164.64,1718.47,164.62,1718.48,164.62,1718.48z"/>
			<path fill="#ADF2CA" d="M129.77,1740.09l-0.85,0.53c-0.9,0.56-2.07,0.28-2.63-0.62c-0.55-0.89-0.28-2.05,0.59-2.61l0.84-0.54
				c0.89-0.58,2.08-0.32,2.65,0.57c0.58,0.89,0.32,2.08-0.57,2.65C129.79,1740.07,129.78,1740.08,129.77,1740.09z"/>
			<path fill="#ADF2CA" d="M94.88,1761.63l-0.85,0.52c-0.68,0.42-1.56,0.21-1.98-0.47c-0.41-0.67-0.21-1.54,0.44-1.96l0.84-0.54
				c0.67-0.44,1.57-0.25,2,0.43s0.25,1.57-0.43,2C94.9,1761.62,94.88,1761.62,94.88,1761.63z"/>
			<path fill="#ADF2CA" d="M59.99,1783.16l-0.85,0.53c-0.45,0.28-1.04,0.14-1.32-0.31c-0.28-0.45-0.14-1.03,0.29-1.31l0.84-0.54
				c0.45-0.29,1.05-0.17,1.35,0.29c0.29,0.45,0.17,1.05-0.29,1.35C60,1783.16,59.99,1783.16,59.99,1783.16z"/>
			<path fill="#ADF2CA" d="M25.05,1804.62l-0.85,0.52c-0.19,0.11-0.43,0.06-0.54-0.13c-0.11-0.18-0.06-0.42,0.12-0.54l0.84-0.55
				c0.19-0.12,0.44-0.07,0.57,0.12C25.3,1804.24,25.25,1804.49,25.05,1804.62C25.05,1804.62,25.05,1804.62,25.05,1804.62z"/>
		</g>
	</g>
</g>
</svg>
