<?xml version="1.0" encoding="utf-8"?>
<!-- Generator: Adobe Illustrator 16.0.4, SVG Export Plug-In . SVG Version: 6.00 Build 0)  -->
<!DOCTYPE svg PUBLIC "-//W3C//DTD SVG 1.1//EN" "http://www.w3.org/Graphics/SVG/1.1/DTD/svg11.dtd">
<svg version="1.1" xmlns="http://www.w3.org/2000/svg" xmlns:xlink="http://www.w3.org/1999/xlink" x="0px" y="0px" width="1920px"
	 height="1920px" viewBox="0 0 1920 1920" enable-background="new 0 0 1920 1920" xml:space="preserve">
<g id="Ebene_1">
</g>
<g id="Ebene_2">
	<path fill="#A9EEC6" d="M404.88,1187.63c119.99-257.99,87.93-322.61,94.5-563.97c6.14-225.51,100.5-391.48,226.49-464.98
		s222.53-46.57,385.48-28.5c98.36,10.91,195.99,65.47,251.99,145.49c42.45,60.66,56.98,140.93,59.33,213.65l-34.13,3.33
		c0.21,23.27-1.34,50.39-2.75,74.37c-2.39,40.68,18.83,80.49,29.05,100.13c24.99,48.06,48.99,72,45.99,85.5s-15,25.5-35.99,34.5
		s-18.01,6-22.51,16.5c-4.5,10.5-4.5,27,1.5,36c6,9,3,19.5-1.5,30s-22.5,15-22.5,15s16.5,7.5,18,21s-9,31.5-24,33s-13.5,45-21,70.5
		s-19.5,58.5-48,63c-25.92,4.09-71.59-12.84-95.99-24c-32.8-15-52.71-26.74-73.5-18c-9.57,4.02-44.72,42.01-60.96,75.94
		c-31.04,64.85-31.04,64.85-50.03,123.55c-4.97,15.37-6,31.5,15,45c21,13.5,85.79,55.35,125.3,98.38
		c33.85,36.87,94.15,152.12,124.88,222.24c62.12,141.76,109.07,155.09,118.12,277.76c1.02,13.88,0.84,29.8-0.25,47H333.96
		c-15.43-156.7-5.31-263-5.31-263s-123.72-74.67-120-88C226.65,1504.5,340.14,1326.81,404.88,1187.63z"/>
</g>
<g id="Ebene_3">
</g>
</svg>
